<svg xmlns="http://www.w3.org/2000/svg" version="1.0" viewBox="0 0 970 2200"><path style="fill:#e3bba3;fill-opacity:.375" d="M634.5 1566.401c-4.17-1.87-10.351-7.61-13.429-12.467-1.219-1.925-3.024-6.425-4.011-10-.987-3.575-3.021-8.975-4.521-12-3.51-7.08-6.661-26.549-8.012-49.5-.906-15.394-1.337-17.992-4.557-27.5-1.957-5.775-4.184-13.2-4.951-16.5-.767-3.3-1.832-7.8-2.367-10-.535-2.2-1.29-8.275-1.678-13.5-.535-7.22-1.556-11.78-4.255-19-1.953-5.225-3.868-12.425-4.256-16-.44-4.054-2.04-9.461-4.25-14.367-5.018-11.14-5.474-16.996-2.15-27.633 4.758-15.23 4.418-37.487-1.108-72.5-2.79-17.676-10.64-61.25-13.6-75.5-4.165-20.034-5.412-24.591-15.79-57.659-8.828-28.132-9.389-34.027-12.927-135.841l-.868-25-5.244-13.492c-2.885-7.42-6.834-16.646-8.776-20.5-5.534-10.983-12.891-33.074-15.171-45.557-1.456-7.97-2.084-15.587-2.097-25.416-.01-7.72-.448-18.085-.975-23.035-.526-4.95-1.444-16.875-2.04-26.5-.595-9.625-1.944-23.575-2.997-31-2.44-17.207-13.428-70.412-20.963-101.5-3.575-14.75-6.699-30.677-8.105-41.324-1.259-9.527-2.764-17.952-3.345-18.72-.87-1.15-2.266-.617-7.855 2.998-5.478 3.543-8.002 4.524-13 5.052-3.673.388-7.338.219-8.988-.415-2.109-.81-2.874-.768-3.15.17-.2.681-1.558 10.239-3.017 21.239-1.458 11-4.19 26.975-6.069 35.5-4.714 21.384-10.253 56.348-11.445 72.248-.546 7.288-1.655 17.752-2.463 23.252-1.526 10.377-3.61 57.598-3.617 82-.007 21.57-1.305 31.071-6.353 46.5-2.43 7.425-6.308 18-8.619 23.5-2.31 5.5-5.502 14.617-7.091 20.26-4.088 14.513-4.05 17.4 1.133 86.809.578 7.738 1.049 20.788 1.047 29-.004 20.89-1.697 30.75-14.071 81.93-2.128 8.8-4.615 20.05-5.527 25a906.346 906.346 0 0 1-3.659 18.5c-1.1 5.226-2.377 12.2-2.839 15.5-.461 3.3-1.749 10.95-2.861 17-2.739 14.897-5.113 41.751-5.113 57.83 0 10.814.456 15.014 2.508 23.103 3.725 14.684 4.067 21.612 1.483 30.068-7.676 25.122-9.03 32.646-9.98 55.5-.712 17.088-1.147 20.55-3.524 28-1.491 4.675-3.735 10.525-4.986 13-3.233 6.395-4.698 17.293-4.544 33.804.073 7.868-.308 15.743-.847 17.5-.54 1.758-2.161 7.879-3.605 13.602-1.443 5.724-3.543 12.207-4.665 14.408-1.123 2.2-2.701 6.292-3.508 9.093-.807 2.801-3.066 7.454-5.02 10.34-3.02 4.462-4.307 5.47-8.613 6.75-10.539 3.129-19.176 1.283-23.277-4.976-2.309-3.524-1.529-14.441 1.448-20.271 1.71-3.35 1.867-4.25.736-4.25-1.708 0-7.95 10.834-9.507 16.5-.604 2.2-1.436 4.5-1.849 5.11-1.276 1.889-7.003 4.39-10.052 4.39-4.136 0-9.514-3.923-10.655-7.772-.756-2.553-1.495-3.228-3.527-3.228-3.508 0-6.956-2.611-8.58-6.498-.949-2.271-2.201-3.405-4.205-3.806-3.372-.675-5.231-4.093-5.231-9.621 0-2.353-.64-4.36-1.662-5.203-2.978-2.46-6.338-11.58-6.338-17.204 0-6.348 5.51-31.156 7.7-34.668.857-1.375 2.598-3.625 3.868-5s4.12-6.1 6.332-10.5c2.213-4.4 7.18-11.825 11.036-16.5 7.487-9.074 9.44-11.795 15.8-22 2.768-4.442 4.381-8.455 5.094-12.673.699-4.137 3.182-10.401 7.533-19 7.05-13.937 7.695-16.967 6.234-29.327-.78-6.609-.407-8.625 5.92-31.968 2.24-8.263 1.847-15.866-2.46-47.532-2.17-15.95-4.894-38.675-6.056-50.5-1.16-11.825-2.972-29.15-4.024-38.5-1.052-9.35-2.4-21.725-2.994-27.5-.594-5.775-2.7-21.975-4.677-36-3.25-23.051-3.606-27.757-3.701-49-.102-22.768.137-26.153 4.48-63.5 1.349-11.603 3.246-23.142 7.07-43 3.008-15.615 3.062-16.398 2.214-32.5-.478-9.075-.87-29.775-.87-46 0-32.279.538-28.28-6.642-49.5-3.533-10.445-7.703-33.65-11.907-66.262-1.115-8.656-3.136-22.325-4.49-30.374-1.353-8.05-2.46-16.164-2.46-18.031 0-1.867-1.101-9.231-2.447-16.364-1.345-7.133-3.372-19.72-4.504-27.97-1.132-8.25-2.737-19.5-3.565-25-6.116-40.586-14.603-124.9-13.051-129.666.239-.734.681-16.183.983-34.333.956-57.464 4.16-86.998 11.673-107.58 6.162-16.887 8.121-33.047 8.414-69.42.196-24.3.332-25.282 8.639-62.5 5.952-26.67 7.25-40.326 7.315-77 .045-25.583-1.19-42.946-4.551-64-3.205-20.073-3.761-20.356-6.326-3.224-1.53 10.214-10.424 47.02-17.212 71.224-2.398 8.549-2.684 11.35-2.857 28-.106 10.175-.696 20.525-1.312 23-1.592 6.397-10.989 33.734-13.234 38.5-3.262 6.924-9.645 22.666-12.772 31.5-13.89 39.234-26.928 72.154-37.427 94.5-13.847 29.471-20.412 45.925-33.715 84.5-8.51 24.677-14.678 42.136-16.075 45.5-.456 1.1-1.064 4.025-1.35 6.5-.287 2.475-1.043 7.875-1.68 12-.687 4.45-.874 10.55-.46 15 1.652 17.73 1.92 14.975-5.003 51.5-4.191 22.11-4.294 19.871 2.559 56 1.043 5.5 2.023 15.099 2.177 21.331.28 11.323.279 11.334-2.525 13.75-1.56 1.345-4.08 2.419-5.677 2.419-4.914 0-6.5-3.356-8.928-18.878-1.2-7.674-3.055-17.006-4.122-20.738-1.067-3.732-2.665-10.726-3.55-15.542-1.946-10.59-3.607-12.596-6.955-8.397-1.266 1.587-2.545 4.274-2.843 5.97-.298 1.697-.822 15.685-1.164 31.085-.87 39.075-1.534 46.033-4.699 49.198-2.969 2.969-8.486 3.364-12.279.878-2.862-1.875-2.983-3.508-1.423-19.076.799-7.976.66-13.002-.688-24.827-1.396-12.253-1.486-16.158-.52-22.5 1.377-9.055 1.495-15.173.29-15.173-.474 0-1.126 2.812-1.449 6.25-.322 3.437-1.074 10.525-1.67 15.75-.595 5.225-1.26 21.342-1.479 35.817-.324 21.506-.677 26.746-1.933 28.663-2.848 4.347-11.488 4.47-15.35.218-1.781-1.96-2.091-4.314-2.857-21.698-1.076-24.422-1.12-40.81-.131-48.32.51-3.876.427-5.61-.25-5.19-.56.345-1.017 1.924-1.017 3.51 0 1.585-.45 3.16-1 3.5-.618.381-1 9.02-1 22.59 0 23.349-.692 27.604-4.85 29.83-3.64 1.948-7.92 1.257-11.384-1.838L15 693.098l-.616-22.332c-.34-12.283-.217-25.707.27-29.832.489-4.125 1.844-15.6 3.013-25.5 2.264-19.17 3.446-38.5 2.354-38.5-.684 0-10.741 8.633-17.855 15.328-7.152 6.73-15.754 9.695-27.965 9.638-8.216-.038-11.701-1.942-11.701-6.393 0-2.06.785-2.94 3.75-4.204 10.081-4.295 12.25-5.422 12.25-6.366 0-.562 4.805-5.851 10.679-11.753 5.873-5.902 12.656-13.436 15.073-16.74 7.76-10.615 8.525-11.51 9.825-11.51.703 0 2.227-1.207 3.386-2.681 1.16-1.475 4.066-4.062 6.458-5.75 10.818-7.636 26.522-21.796 29.18-26.311 4.605-7.825 6.398-12.004 6.418-14.96.017-2.545 1.469-8.508 7.012-28.798l3.943-14.443c1.117-4.093 2.714-11.376 3.548-16.184.834-4.808 3.05-12.976 4.923-18.15 5.44-15.03 8.283-28.861 16.078-78.223 5.385-34.099 8.275-50.728 10.951-63 1.32-6.05 3.815-19.1 5.545-29 2.953-16.895 8.593-38.993 13.144-51.5 1.101-3.025 3.718-10.45 5.816-16.5 2.098-6.05 5.161-13.925 6.807-17.5 8.604-18.683 12.033-32.808 15.172-62.5 1.163-11 3.22-29 4.573-40 6.836-55.631 6.972-57.56 6.701-95.5-.391-55.007 1.316-75.018 9.385-110 4.646-20.146 9.61-35.38 13.356-40.996 7.164-10.735 16.923-18.216 31.11-23.843 7.71-3.059 11.109-4.79 20.917-10.653 3.025-1.809 9.922-4.933 15.327-6.944 23.225-8.638 78.087-35 92.173-44.29 9.653-6.367 15.85-12.475 18.086-17.826 2.17-5.192 4.419-21.184 4.929-35.043.447-12.15.36-12.862-2.38-19.261-6.047-14.131-9.338-25.76-12.585-44.476-1.665-9.595-2.055-10.668-3.877-10.668-.665 0-2.942-1.178-5.06-2.618-5.122-3.48-10.523-15.108-14.005-30.151-2.988-12.913-3.205-17.843-1.132-25.802 1.56-5.992 2.598-7.759 6.34-10.798 2.001-1.625 2.224-2.445 1.635-6.007-.376-2.268-1.08-4.88-1.563-5.802-.485-.922-1.37-7.447-1.968-14.5-.597-7.052-1.565-13.815-2.149-15.029-.753-1.564-.738-5.058.053-12 .713-6.262.766-9.914.146-10.127-1.244-.427-1.264-3.867-.028-4.63.518-.321 1.216-2.71 1.551-5.31.335-2.6 1.036-5.508 1.558-6.463.522-.955.949-2.93.949-4.39 0-1.458 1.427-4.952 3.17-7.763 1.744-2.81 4.62-7.654 6.391-10.763 2.951-5.18 11.622-16.398 20.35-26.326 4.257-4.843 12.77-11.38 15.839-12.164 1.237-.316 2.25-.995 2.25-1.51 0-.514.562-.83 1.25-.703.687.128 2.664-.102 4.392-.511 2.42-.574 3.03-1.174 2.653-2.613-.41-1.57.282-1.984 4.342-2.593 2.656-.399 6.32-1.347 8.14-2.108 1.821-.76 3.76-1.105 4.31-.765.55.34 1.63.096 2.399-.542.768-.639 3.561-1.228 6.206-1.311 2.644-.083 5.129-.611 5.52-1.174.47-.674 2.393-.427 5.635.724 5.786 2.056 8.828 2.224 9.396.52.304-.914 1.047-.811 2.892.398 2.346 1.537 6.175 1.56 9.865.058.825-.336 2.85-.72 4.5-.855s4.526-.56 6.392-.943c2.33-.48 3.183-.36 2.723.384-.452.731 1.253 1.073 5.252 1.054 6.347-.03 10.19 1.482 13.855 5.45 1.223 1.324 4.256 2.977 6.742 3.672 2.485.696 5.535 2.274 6.777 3.506 1.242 1.232 4.509 3.392 7.259 4.8 8.302 4.25 15.975 12.39 30.828 32.705 1.81 2.475 3.866 6.075 4.57 8 .704 1.925 1.937 4.733 2.742 6.24 2.008 3.764 3.59 12.62 4.066 22.76.479 10.2.51 8.892-.645 27.5-1.176 18.93-2.566 29.338-4.737 35.45l-1.707 4.806 2.665 3.167c2.87 3.411 6.718 14.431 6.718 19.241 0 5.091-4.876 24.967-8.26 33.667-2.033 5.227-4.513 9.604-6.657 11.75-3.426 3.428-4.06 3.683-9.545 3.836l-2.961.083-2.848 14c-4.191 20.603-4.437 21.724-5.485 25-.945 2.952-.837 16.496.253 31.783.838 11.74 4.067 26.297 6.91 31.15 3.572 6.093 11.903 13.347 21.154 18.42 38.74 21.238 75.479 39.286 97.939 48.112 17.826 7.005 20.926 8.56 33.5 16.803 14.465 9.482 25.846 18.892 30.47 25.19 8.838 12.04 15.269 33.277 20.604 68.042 2.064 13.452 2.242 18.401 2.467 68.5.232 51.664 1.209 74.734 4.392 103.746 5.673 51.692 8.72 73.311 12.228 86.754 2.468 9.458 2.896 10.624 9.92 27 6.19 14.436 18.513 51.001 21.903 65 1.132 4.675 3.42 17.725 5.084 29 1.664 11.275 4.787 31.3 6.94 44.5 3.924 24.058 7.086 45.046 9.04 60 2.036 15.583 4.144 27.857 6.076 35.38 2.224 8.659 12.352 40.654 17.606 55.62 1.93 5.5 4.988 15.175 6.795 21.5 5.873 20.559 8.157 25.586 14.894 32.79 3.345 3.576 12.764 12.343 20.933 19.483 9.158 8.005 15.866 14.709 17.5 17.488 3.173 5.4 9.771 13.866 16.218 20.812 2.59 2.79 5.662 6.94 6.826 9.222 3.066 6.01 7.329 10.49 13.596 14.29 4.871 2.951 5.508 3.715 5.508 6.603 0 4.97-3.355 6.717-11.62 6.054-10.163-.816-18.831-5.619-30.13-16.694l-9.25-9.067v6.144c0 6.471.426 9.538 4.567 32.875 4.211 23.73 4.392 25.648 4.413 46.782.023 23.45-.631 26.338-6.521 28.8-3.302 1.379-3.93 1.354-7.286-.287-4.916-2.403-5.8-5.483-7.15-24.935-1.674-24.112-2.315-28.342-5.64-37.23-1.31-3.502-2.383-7.89-2.383-9.75 0-1.859-.45-3.38-1-3.38-1.488 0-1.21 6.398.577 13.296 2.002 7.725 2.328 27.06.673 39.914-.688 5.341-1.25 15.513-1.25 22.604 0 12.21-.127 13.03-2.391 15.474-3.126 3.373-9.02 4.523-12.51 2.442-4.81-2.868-5.094-4.556-4.755-28.23.308-21.507-.168-31.824-2.303-49.957-1.736-14.743-3.184-12.932-2.422 3.03.447 9.364.3 15.169-.446 17.474-1.696 5.25-3.14 19.893-3.485 35.34-.297 13.317-.41 13.969-2.737 15.854-3.222 2.608-10.595 1.8-13.287-1.455-1.739-2.103-1.806-4.484-1.269-44.673.553-41.278.352-45.113-2.366-45.113-.4 0-.8 3.89-.888 8.645-.09 4.755-.9 11.393-1.803 14.75-.902 3.358-1.729 8.355-1.836 11.105-.328 8.377-1.643 20.791-2.612 24.656-1.55 6.18-9.123 7.091-13.228 1.593-2.73-3.656-3.297-15.47-1.524-31.75 1.744-16.016 1.747-35.952.007-42.747-.739-2.886-1.636-5.067-1.994-4.846-.358.221-.746-1.804-.862-4.5-.116-2.695-.669-6.604-1.23-8.685-3.507-13.026-4.988-27.41-4.776-46.377.206-18.367.103-19.557-2.033-23.555-1.238-2.315-2.25-4.888-2.25-5.717 0-1.468-7.082-18.334-22.34-53.204-4.123-9.422-9.963-23.597-12.977-31.5-3.014-7.903-10.516-26.293-16.671-40.868-13.971-33.084-16.61-39.924-28.551-74-9.582-27.344-12.397-34.575-18.298-47-3.446-7.257-13.132-33.78-15.156-41.5-.804-3.067-1.394-12.155-1.525-23.5-.193-16.568-.492-19.493-2.866-28-5.566-19.943-11.755-46.038-14.577-61.462-2.43-13.276-6.04-40.868-6.04-46.167 0-.754-.395-1.371-.88-1.371-.484 0-1.637 5.062-2.56 11.25-.924 6.187-3.183 19.35-5.02 29.25-9.516 51.277-10.362 79.918-3.383 114.5 9.261 45.883 10.654 56.607 11.885 91.5.524 14.85 1.393 28.8 1.932 31 .539 2.2.99 5.896 1.003 8.214.017 3.072.53 4.486 1.887 5.212 1.024.548 2.344 2.252 2.933 3.785 1.128 2.936 4.17 17.684 4.7 22.789.172 1.65.986 5.137 1.81 7.75.824 2.612 1.262 4.75.974 4.75-.289 0-.032.594.571 1.32.603.727 1.067 2.64 1.032 4.25-.036 1.611.461 5.18 1.105 7.93 4.657 19.904 6.04 27.513 7.003 38.5 1.251 14.29 2.62 25.79 4.525 38 .73 4.675 2.108 15.684 3.063 24.465 1.524 14.018 1.589 18.167.53 34-1.768 26.468-6.78 79.154-9.659 101.535-1.379 10.725-3.38 32.1-4.447 47.5-2.274 32.831-10.264 109.84-12.51 120.564-.856 4.09-2.395 10.136-3.42 13.436-5.722 18.41-8.133 55.6-6.159 95 1.116 22.256 2.017 27.328 9.422 53 4.529 15.699 11.199 49.484 13.13 66.5 2.695 23.75 1.937 62.868-1.975 102-1.517 15.167-3.159 46.276-4.012 76-.276 9.625-.957 23.8-1.512 31.5-3.399 47.11-3.829 67.806-1.543 74.284.783 2.219 1.197 4.261.92 4.538-.277.277.268 1.683 1.212 3.123 3.548 5.415 5.502 15.542 6.09 31.555l.567 15.5 4.608 6c4.839 6.3 13.16 21.83 17.148 32 1.293 3.3 2.955 6.71 3.691 7.578.737.869 1.34 1.997 1.34 2.507 0 .511 2.061 3.4 4.58 6.422 6.245 7.488 18.24 25.33 20.569 30.596 1.048 2.37 2.955 5.565 4.237 7.102 6.108 7.319 8.597 16.117 8.57 30.295-.018 9.385-.309 11.083-2.738 16-1.557 3.15-3.786 6.017-5.218 6.71-2.737 1.327-3.699 4.185-3.882 11.54-.144 5.802-2.935 9.263-6.705 8.317-2.27-.57-2.413-.351-2.413 3.691 0 6.058-2.146 8.742-6.99 8.742-3.474 0-3.91.282-4.194 2.717-.74 6.351-14.282 10.011-19.367 5.235l-2.18-2.048-.587 2.936c-1.155 5.776-16.196 9.985-23.682 6.627z" transform="translate(41.5 630.923)"/></svg>
