<svg fill="none" xmlns="http://www.w3.org/2000/svg" viewBox="0 0 162 164"><g clip-path="url(#a)"><path fill-rule="evenodd" clip-rule="evenodd" d="M87.909 20.218c-1.728 2.422-3.708 2.583-5.413.461l-.668-.807-.92.484c-.508.254-1.152.623-1.429.807l-.507.323.461 1.085c1.152 2.699 2.534 3.806 4.79 3.806.83 0 1.728-.161 2.373-.438 1.06-.485 3.87-2.93 3.87-3.391-.024-.139-.415-.97-.899-1.823l-.898-1.592-.76 1.085Zm-6.31 9.156c.091.67.206 1.384.253 1.569l.003.028.01.071.008.056c.022.163.048.347.048.468.023.438 2.188.969 3.523.876 2.188-.138 2.419-.276 2.903-1.568.253-.67.53-1.546.621-1.961l.162-.739h-7.693l.161 1.2Zm-61.748 2.86c2.58-.761 3.201-.877 6.587-1.269.69-.069 4.698-.138 8.867-.138 5.643 0 7.877.092 8.637.323 3.294.969 5.643 3.276 6.91 6.713.437 1.177.53 4.383.16 5.745-.852 3.183-2.556 6.344-2.349 4.29.116-1.038-.598-3.898-1.404-5.56-1.89-3.944-5.643-6.136-12.184-7.151-2.856-.438-3.662-.508-5.758-.438-1.267.046-2.58.138-2.925.207-.147.028-.317.063-.486.098-.255.053-.51.105-.689.133-2.625.461-6.771 2.791-8.683 4.89-2.855 3.161-4.882 7.29-5.62 11.513-.068.369-.184.945-.253 1.268-.276 1.292-.414 3.023-.437 5.306-.023 7.567 1.727 13.45 5.55 18.64 3.294 4.476 7.946 7.568 13.405 8.929 1.428.346 2.625.576 2.671.53.185-.161.208-18.086.046-20.509-.207-2.953-.713-4.452-2.533-7.543-.852-1.43-1.543-2.63-1.543-2.676 0-.254 21.65-.323 24.529-.07 4.905.415 8.084 1.707 10.801 4.43 1.405 1.407 3.11 4.568 3.478 6.46.059.258.118.535.167.769.048.224.087.409.11.499.138.53.115 3.968-.047 4.845-.552 3.322-2.533 7.22-5.09 10.081a41.708 41.708 0 0 0-1.612 1.846 177.038 177.038 0 0 1-2.533 2.907c-.392.438-.507.738-.369.922.115.162 1.083 1.361 2.165 2.7a423.352 423.352 0 0 1 4.445 5.744l1.07 1.423c1.66 2.213 1.754 2.339 3.237 4.137.32.398.663.818.96 1.183.321.395.59.725.722.893 1.059 1.315 6.034 6.252 7.116 7.082.645.485 1.244.946 1.313 1.061.07.093.415.07.737-.092.553-.254.622-.392.622-1.569.023-.715.023-12.019.023-25.1l.023-23.83.76.6c1.359 1.014 2.74 3.206 2.994 4.683.026.146.055.321.085.501v.001c.05.303.102.619.145.836.046.369.162 5.998.23 12.526.346 32.344.553 48.355.646 49.6.046.485.16.577.737.577h.69l.024-7.152c.138-27.799.53-55.551.783-56.751.115-.508.668-1.892 1.243-3.045 1.014-2.007 1.083-2.1 1.682-1.938.437.115.645.346.714.854.184 1.06.16 54.052-.023 57.651-.23 4.498-.507 6.482-1.912 13.334-.184.969-.391 2.03-.46 2.33-.185 1.084-.76 2.422-1.866 4.36l-.266.471c-.428.762-.656 1.168-.887 1.17-.263.002-.53-.519-1.102-1.633a111.14 111.14 0 0 0-.325-.631c-1.382-2.607-2.694-6.69-3.109-9.597-.069-.553-.155-1.228-.242-1.903l-.242-1.903c-.069-.508-.184-2.999-.253-5.537-.092-3.53-.207-4.683-.46-4.96-.254-.254-.968-.346-2.926-.369-4.583-.069-7.922-1.569-11.561-5.283-2.048-2.074-2.28-2.376-5.06-5.988l-.007-.01c-4.4-5.79-5.16-6.852-6.219-8.674-2.441-4.245-4.63-5.514-9.512-5.468-1.359 0-2.58.07-2.74.116-.139.069-.231.323-.162.6.092.507.092 4.498 0 9.712-.092 4.614.322 6.805 1.797 9.597.829 1.615 1.404 2.376 2.786 3.737l1.106 1.107H26.323l1.658-1.73c1.866-1.915 3.017-4.037 3.685-6.69.323-1.338.392-2.838.438-8.836 0-3.945-.046-7.198-.115-7.22l-.07-.011-.14-.021a181.19 181.19 0 0 1-3.153-.5c-10.042-1.568-15.385-3.898-20.36-8.858-3.616-3.599-6.218-8.49-7.14-13.427l-.171-.892c-.118-.615-.236-1.23-.312-1.6-.092-.53-.162-2.814-.139-5.074.07-4.407.507-7.383 1.682-10.89 2.879-8.674 9.19-14.902 17.665-17.394Zm33.833 31.582c-1.773-1.799-4.652-3.206-7.047-3.483-.668-.07-1.29-.138-1.428-.185-.6-.138-2.88.3-3.524.67-.507.3-.76.692-.921 1.36-.23.97-.208 21.755.023 22.678.437 1.776 1.151 2.03 5.688 2.007 3.156-.023 3.732-.069 4.93-.553 2.371-.923 3.96-2.769 4.951-5.722 2.28-6.736 1.313-12.78-2.672-16.771Zm32.13-29.983c-.047.023-.738.116-1.544.185-1.911.161-2.602.761-2.602 2.307 0 .576.069 1.153.115 1.245.138.231 6.31.231 6.518 0 .391-.392.276-2.214-.139-2.768-.368-.461-2.119-1.176-2.349-.969Zm-4.193 8.854c-.277-1.384.46-2.838 1.566-3.045 1.243-.254 3.454-.139 4.192.207 1.013.485 1.381 1.592.967 2.884l-.208.6-3.2-.023h-3.18l-.137-.623Zm-.045 5.142.023 2.146 3.408.046c3.017.023 3.386 0 3.409-.346.092-1.107.092-3.437.023-3.691-.07-.208-.967-.277-3.478-.277h-3.385v2.122Zm-1.36 5.61c1.013-.091 1.888-.207 1.934-.253.115-.115 7.048.092 8.545.254 4.468.53 15.546 3.137 17.619 4.153 1.082.53 2.764 2.099 5.873 5.467.668.738 1.313 1.338 1.451 1.338.138 0 1.221-.969 2.441-2.145 4.492-4.36 7.992-6.09 15.224-7.452.875-.162 26.717-.323 26.717-.162 0 .07-.967 2.815-2.165 6.137l-.628 1.777c-.933 2.64-1.744 4.937-1.952 5.467-.23.669-.483 1.223-.575 1.223-.093 0-.83-1.015-1.682-2.261-2.395-3.576-3.823-4.822-7.001-6.229-4.929-2.169-11.24-2.538-15.846-.877-3.178 1.13-6.15 3.668-7.946 6.829-1.059 1.869-2.764 6.898-3.109 9.228-.069.438-.161.946-.231 1.13-.529 1.546-.529 9.02-.023 11.789l.107.553c.421 2.192.437 2.275 1.206 4.522 1.106 3.322 2.902 6.76 4.952 9.574 4.1 5.56 9.673 8.19 17.066 8.075 2.833-.047 4.077-.323 4.952-1.085 1.175-1.061 1.198-1.384 1.198-11.004 0-8.605-.023-8.951-.507-10.058-.714-1.684-2.856-2.907-4.698-2.746-.576.07-.645 0-.576-.553l.069-.623h6.034c5.666 0 6.035.023 6.518.461 1.198 1.084 1.244 1.384 1.29 11.327.046 7.683.115 9.482.415 10.728.621 2.353 1.773 4.383 3.708 6.344l.921.946-6.564.046c-14.902.138-17.804.092-20.038-.3-.26-.056-.715-.127-1.112-.188l-.269-.043c-2.925-.461-6.772-1.684-9.328-2.953-6.242-3.137-10.779-8.674-12.852-15.664-.507-1.66-.668-2.307-.99-3.783a29.437 29.437 0 0 1-.184-1.27l-.035-.218a49.41 49.41 0 0 1-.449-3.242c-.092-.692-.23-1.338-.3-1.43-.092-.092-1.082.023-2.234.277-5.55 1.13-10.986 2.307-11.17 2.422-.184.116-.921-.484-.921-.761 0-.092.806-.461 1.796-.808 5.113-1.891 8.407-5.236 9.558-9.689.438-1.66.438-5.537.023-7.544-.898-4.29-3.155-7.382-6.656-9.089-1.428-.692-2.556-1.061-4.49-1.453-1.037-.208-3.548-.139-4.607.161-1.497.392-3.34 1.73-4.56 3.253l-1.06 1.315-.645-1.108c-1.405-2.468-3.777-3.575-7.554-3.53-.466.016-1.276.032-2.086.047l-1.139.023c-2.51.046-3.523-.115-4.997-.83-1.566-.739-3.501-3.069-3.11-3.715.093-.138.945-.323 1.889-.415.944-.092 1.773-.184 1.842-.23.07-.047.853-.139 1.728-.231l.73-.074a53.528 53.528 0 0 0 1.458-.157c.208-.015.695-.068 1.25-.13.303-.032.628-.068.938-.1.378-.04.782-.078 1.149-.114.504-.049.94-.09 1.154-.117.253-.03.813-.08 1.451-.135.35-.03.724-.063 1.083-.096Z" fill="#fff"/></g><defs><clipPath id="a"><path fill="#fff" d="M.5 0h161v164H.5z"/></clipPath></defs></svg>
