<svg fill="none" xmlns="http://www.w3.org/2000/svg" viewBox="0 0 48 48"><g clip-path="url(#a)"><path d="M48 24c0 13.255-10.745 24-24 24S0 37.255 0 24 10.745 0 24 0s24 10.745 24 24Z" fill="#B47A1E"/><path fill-rule="evenodd" clip-rule="evenodd" d="M22.605 7.022c-2.2.252-3.769.684-5.522 1.52a16.014 16.014 0 0 0-9.033 12.77c-.099.942-.044 3.27.099 4.138.216 1.32.743 3.183 1.274 4.506 1.284 3.2 3.356 5.736 6.172 7.552a15.68 15.68 0 0 0 15.442.863 15.762 15.762 0 0 0 6.815-6.498c1.905-3.43 2.641-8.434 1.809-12.293a15.95 15.95 0 0 0-4.489-8.058c-2.459-2.384-5.325-3.811-8.797-4.381-.602-.099-3.226-.182-3.77-.12Zm2.945.903a14.445 14.445 0 0 1 6.901 2.713c.808.591 2.097 1.844 2.718 2.641a13.69 13.69 0 0 1 2.91 8.438c0 1.675-.169 2.708-.726 4.423a13.568 13.568 0 0 1-4.53 6.446c-1.213.95-1.374 1.01-2.666 1.009-1.516-.002-2.713-.448-3.657-1.362-.521-.506-.832-1.015-.995-1.633l-.08-.302.303-.297c.347-.34.515-.746.513-1.236-.002-.33-.176-.809-.373-1.022-.093-.102-.08-.116.186-.185.576-.15 1.285-.401 1.51-.537.787-.472 1.453-1.411 2.012-2.832.564-1.432 1.451-2.824 2.17-3.401.164-.132.503-.35.753-.484l.456-.244.02-.307c.016-.243-.001-.308-.083-.308-8.701-.02-17.726.013-17.72.065.003.036.01.182.016.324.01.253.02.264.456.47.473.225 1.305.974 1.714 1.544.283.393.963 1.738 1.254 2.479.292.746.877 1.743 1.24 2.118.513.53.877.72 2.006 1.05l.477.14-.156.238c-.467.715-.364 1.584.258 2.16.264.244.28.354.123.809-.452 1.303-1.685 2.27-3.375 2.648-.885.197-2.437.106-3.147-.185-.528-.217-1.95-1.436-2.804-2.403-1.814-2.057-2.933-4.477-3.363-7.27-.143-.932-.144-2.795-.003-3.757.446-3.02 1.77-5.674 3.903-7.82a17.16 17.16 0 0 1 1.295-1.174A14.33 14.33 0 0 1 25.55 7.925Zm-2.269 4.917c-.335.331-.61.631-.61.667 0 .062.963 1.014 1.21 1.197.109.08.181.029.745-.522.343-.336.624-.643.624-.684 0-.08-1.226-1.26-1.309-1.26-.027 0-.324.271-.66.602Zm1.663 9.467c.496.504.9.935.898.958-.001.022-.417.464-.923.982l-.92.94-.978-.956-.977-.957.957-.942c.527-.518.977-.941 1-.941.023 0 .447.412.943.916Zm-11.895.773c-.712.35-.995.828-.836 1.413.1.364.612 1.38 1.1 2.181.92 1.509 2.377 2.829 3.77 3.415.948.398 2.742.632 3.034.395.132-.107.118-.327-.025-.4a65.402 65.402 0 0 0-.595-.29 9.663 9.663 0 0 1-.828-.453c-.459-.294-1.314-1.189-1.769-1.849-.448-.651-1.126-2.124-1.513-3.29-.152-.457-.325-.883-.383-.945-.162-.172-.817-.373-1.21-.372-.254 0-.456.053-.745.195Zm20.633-.106c-.57.176-.698.335-.923 1.143-.263.943-.945 2.495-1.358 3.09-.11.156-.294.424-.411.593-.58.844-1.742 1.762-2.743 2.17-.402.163-.457.25-.288.456.115.14.168.149.783.14 1.06-.017 2.1-.317 3.088-.89.614-.356 1.612-1.22 2.17-1.88.476-.561 1.195-1.735 1.635-2.668.522-1.109.31-1.703-.762-2.143-.294-.12-.822-.125-1.19-.011Zm-9.076 12.442c.354.325.644.624.644.667 0 .042-.28.35-.62.684-.47.458-.646.593-.722.55-.177-.098-1.237-1.13-1.237-1.203 0-.072 1.183-1.287 1.253-1.287.02 0 .328.265.682.59Z" fill="#4F1A13"/></g><defs><clipPath id="a"><path fill="#fff" d="M0 0h48v48H0z"/></clipPath></defs></svg>