<svg fill="none" xmlns="http://www.w3.org/2000/svg" viewBox="0 0 48 48"><g clip-path="url(#a)"><path d="M48 24c0 13.255-10.745 24-24 24S0 37.255 0 24 10.745 0 24 0s24 10.745 24 24Z" fill="#429081"/><path fill-rule="evenodd" clip-rule="evenodd" d="M25.335 6.855c-.18-.572-.528-1.248-.792-1.535-.364-.397-.398-.404-.668-.134-.333.331-.668.916-.912 1.59-.163.453-.208.741-.242 1.578l-.041 1.024-.39.25c-.457.292-.46.291-.838-.44-.22-.426-.266-.615-.337-1.397l-.081-.904-.262.292c-.335.373-.754 1.226-.87 1.772-.127.597-.05 1.759.154 2.319.182.5.699 1.33.828 1.331.046 0 .366-.081.71-.182 1.77-.517 3.33-.49 5.133.086l.644.206.19-.225c.27-.318.644-1.068.777-1.556.147-.539.145-1.594-.003-2.149a4.268 4.268 0 0 0-.813-1.591l-.29-.343-.053.797c-.06.893-.185 1.338-.53 1.87-.226.347-.243.358-.4.245a3.885 3.885 0 0 0-.42-.246c-.218-.108-.25-.158-.21-.33.07-.313-.106-1.76-.284-2.328Zm2.95 8.613c-.467-.236-1.843-.594-2.59-.674-.874-.094-3.173-.064-3.845.05a9.104 9.104 0 0 0-2.642.874c-.822.409-1.151.614-2.084 1.301-.528.39-1.513 1.449-1.979 2.13-.42.616-1.219 2.164-1.219 2.366 0 .058-.03.124-.068.147-.115.069-.535 1.704-.638 2.485-.298 2.256.654 5.284 2.324 7.391.81 1.021 1.918 1.976 2.96 2.55 1.979 1.09 3.014 1.342 5.526 1.35 2.19.008 3.34-.243 4.959-1.08 1.77-.915 3.495-2.54 4.333-4.083.195-.359.43-.857.84-1.78.322-.724.663-2.55.658-3.522-.006-1.165-.364-2.703-.895-3.84l-.44-.945c-.711-1.525-2.66-3.435-4.411-4.321l-.789-.4Zm-12.378 4.307c1.411-2.046 3.966-3.678 6.253-3.993.235-.032 1.18-.049 2.098-.036 1.519.02 1.74.04 2.447.224 1.43.372 2.76 1.129 4.093 2.33 1.085.979 2.08 2.514 2.502 3.86.657 2.093.666 3.714.032 5.727-.29.924-.624 1.589-1.284 2.56-1.15 1.689-3.32 3.222-5.304 3.748-.795.21-.866.216-2.758.216h-1.942l-.864-.243c-1.265-.356-2.524-1.037-3.566-1.93-1.815-1.554-2.78-3.22-3.308-5.708-.133-.627-.154-.92-.116-1.61.112-2.025.625-3.56 1.717-5.145Zm8.813-1.257c-.008-.896-.032-1.707-.053-1.8-.035-.161-.077-.171-.69-.171h-.651l-.014 1.498c-.007.824-.016 1.627-.02 1.785-.003.168-.054.318-.122.36-.103.063-.518.104-.56.055-.008-.01-.034-.804-.058-1.764l-.042-1.745-.416.018c-.843.034-2.552.773-3.534 1.526-.646.496-1.905 1.87-2.283 2.49-.4.658-.817 1.682-1.045 2.566-.245.953-.243 2.426.004 3.45.231.954.678 2.048 1.12 2.739.434.679 2.009 2.275 2.641 2.677 1.034.658 2.297 1.162 3.105 1.24l.447.042v-1.708c0-1.419.02-1.724.115-1.802.13-.105.509-.042.601.1.032.05.059.866.06 1.815v1.726h1.302l.048-.237c.027-.13.049-.932.049-1.78 0-1.392.013-1.55.136-1.613.25-.129.513-.064.571.14.03.105.058.903.062 1.774l.008 1.584.454-.05c.921-.102 2.372-.727 3.315-1.428.446-.332 1.323-1.173 1.801-1.728 1.211-1.406 1.947-3.558 1.868-5.462-.033-.783-.245-1.928-.444-2.39-.036-.083-.109-.27-.163-.416-.192-.525-.738-1.488-1.075-1.897-.643-.782-1.677-1.75-2.3-2.153-1.01-.653-2.161-1.116-3.049-1.225l-.407-.05-.008 1.581c-.004.87-.033 1.667-.063 1.771-.048.161-.1.188-.345.181-.159-.005-.303-.022-.32-.039-.016-.016-.037-.763-.045-1.66Zm-6.795 1.71c.78-.883 1.406-1.37 2.367-1.842.362-.177.703-.322.758-.322.08 0 .1.533.1 2.655v2.655h-1.165c-.756 0-1.08.007-1.145-.116-.05-.097.061-.273.251-.597.565-.964.833-1.062.76-.278l-.043.46h.877V21.25c0-.876-.027-1.593-.059-1.593-.128 0-1.426 1.01-1.73 1.347a6.318 6.318 0 0 0-1.406 2.521c-.201.68-.194.909.029.918.686.028 4.82-.012 4.879-.048.041-.025.073-.642.073-1.434V21.57l.268-.03c.147-.017.34-.005.428.027.16.058.161.078.14 3.529l-.02 3.47-.203.07a.833.833 0 0 1-.396.022l-.194-.047-.042-1.41c-.024-.775-.059-1.425-.078-1.444-.027-.026-3.938-.055-4.855-.035-.145.003-.175.046-.174.25.004.885.96 2.684 1.849 3.48.499.447 1.317 1.053 1.421 1.053.039 0 .07-.694.07-1.548V27.41l-.37-.033c-.203-.018-.4-.017-.437.003-.037.02-.047.232-.021.473.036.34.022.446-.064.478-.122.046-.532-.456-.808-.99-.117-.228-.19-.362-.15-.44.059-.117.367-.113 1.15-.113h1.166v2.655c0 2.328-.015 2.655-.119 2.655-.174 0-1.18-.507-1.63-.82-1.304-.912-2.315-2.143-2.84-3.46-.426-1.069-.546-1.692-.534-2.77.012-.99.054-1.262.33-2.13.348-1.094.72-1.733 1.567-2.69Zm8.925 3.054c-.045-.071-.058-2.267-.03-5.02.001-.124.042-.135.322-.092.625.098 2.032 1.052 2.79 1.892 1.143 1.267 1.57 2.095 1.968 3.816.162.696.164 1.928.006 2.465-.507 1.715-.67 2.088-1.27 2.895-.537.723-1.118 1.33-1.708 1.784-.98.755-2.102 1.22-2.11.877a676.54 676.54 0 0 1-.015-2.557c-.009-2.023.008-2.425.101-2.483.122-.075 2.193-.1 2.268-.027.139.136-.794 1.606-.957 1.508-.04-.024-.073-.262-.073-.53v-.484l-.408.045a3.784 3.784 0 0 0-.429.06c-.011.01-.011.727 0 1.595l.021 1.577.765-.584c1.041-.795 1.206-.971 1.781-1.904.287-.465.707-1.595.782-2.105l.041-.284-.48-.005a592.96 592.96 0 0 0-3.996.002l-.64.003v2.866l-.292.035a1.25 1.25 0 0 1-.456-.024l-.165-.06.019-6.952h.855l.042 2.845.6.005c.87.007 4.06.008 4.305 0 .196-.005.206-.022.165-.29-.15-.985-.816-2.327-1.552-3.126-.387-.42-1.584-1.368-1.728-1.368-.063 0-.082.445-.067 1.574l.021 1.574.824.042-.016-.496c-.01-.273.01-.52.042-.552.094-.089.557.484.816 1.01.13.263.237.499.237.522 0 .024-.522.043-1.16.043-.825 0-1.178-.027-1.219-.092ZM12.991 33.926c-.62-.814-1.294-2.047-1.662-3.042-.324-.876-.354-.923-.316-.493l.08.908c.106 1.244.675 2.976 1.384 4.217.48.84.487.85.977 1.472 2.316 2.934 5.605 4.64 9.582 4.97 4.012.334 8.38-1.378 10.937-4.285.797-.907 1.256-1.59 1.784-2.655.728-1.47 1.1-2.805 1.196-4.286l.047-.72-.26.682c-.464 1.218-1.107 2.415-1.74 3.236-2.169 2.815-5.137 4.551-8.869 5.188-.863.147-3.397.149-4.242.003-3.787-.653-6.76-2.388-8.898-5.195Z" fill="#F0C890"/></g><defs><clipPath id="a"><path fill="#fff" d="M0 0h48v48H0z"/></clipPath></defs></svg>