<svg fill="none" xmlns="http://www.w3.org/2000/svg" viewBox="0 0 48 48"><g clip-path="url(#a)"><path d="M48 24c0 13.255-10.745 24-24 24S0 37.255 0 24 10.745 0 24 0s24 10.745 24 24Z" fill="#06090D"/><path d="M32.654 2.96C27.956 7.542 19.756 15.54 24 23.613c-8.644-5.248-11.098-11.83-11.814-20.509A23.89 23.89 0 0 1 24 0c3.423 0 6.679.717 9.625 2.008-.3.298-.626.616-.97.952ZM47.973 25.151C39.253 22 34.294 21.887 24.01 23.613c8.64.753 11.328 11.035 13.54 19.491l.156.6c5.928-4.131 9.904-10.87 10.267-18.553ZM12.323 44.973C18.854 38.267 23.898 31.55 24 23.613c-4.114 7.97-13.42 5.099-20.06 3.05-1.451-.448-2.776-.856-3.89-1.104.536 8.357 5.349 15.55 12.273 19.414Z" fill="#4C4D57"/></g><defs><clipPath id="a"><path fill="#fff" d="M0 0h48v48H0z"/></clipPath></defs></svg>
