<svg fill="none" xmlns="http://www.w3.org/2000/svg" viewBox="0 0 48 48"><g clip-path="url(#a)"><path d="M48 24c0 13.255-10.745 24-24 24S0 37.255 0 24 10.745 0 24 0s24 10.745 24 24Z" fill="#294D18"/><path fill-rule="evenodd" clip-rule="evenodd" d="M20.423 8.844c.453-.25 1.199-.503 2.043-.695.586-.134 1.908-.19 2.654-.115 2.205.223 4.339 1.564 5.493 3.451l.401.655.75.358c1.207.576 1.99 1.126 3.025 2.125 1.34 1.295 2.069 2.32 2.767 3.897.739 1.667 1.114 3.876.956 5.621l-.056.621.255.345c.333.45.583.945.846 1.67.372 1.028.448 1.517.443 2.848-.007 1.533-.124 2.032-.777 3.29-.997 1.92-2.526 3.183-4.62 3.815-.664.2-.869.229-1.911.269l-1.168.045-.425.26c-1.305.802-3.12 1.418-4.82 1.635-.962.123-3.13.05-4.008-.136-1.393-.295-3.03-.95-4.153-1.662l-.456-.29-.57.07c-.74.091-2.604 0-3.259-.159-1.62-.394-3.463-1.619-4.4-2.925a7.63 7.63 0 0 1-1.37-5.42c.123-.955.52-2.086.94-2.674.127-.178.13-.225.043-.69-.06-.31-.094-1.018-.093-1.877.002-1.588.125-2.362.6-3.77 1.102-3.272 3.706-6.006 6.926-7.272l.75-.295.355-.5c.632-.892 1.812-1.93 2.84-2.495ZM28.833 12c-.614-.918-1.792-1.699-3.288-2.18-.507-.163-.708-.192-1.274-.182-1.971.033-3.979 1.021-5.05 2.485-.65.886-1.223 2.339-1.355 3.43-.07.581.2 2.042.51 2.76l.21.482c.213.481.872 1.358 1.452 1.931.922.91 2.1 1.515 3.738 1.918.489.12.746.143 1.38.119.971-.037 1.606-.167 2.688-.55 1.718-.61 2.091-.675 3.75-.661 1.457.012 1.913.076 2.878.406.967.33 1.545.639 2.459 1.313l.241.178-.05-.62c-.227-2.802-1.759-5.932-3.684-7.527-.235-.195-.746-.561-1.136-.813l-.707-.458-.043 1.089c-.064 1.657-.277 2.487-.871 3.39-.836 1.271-2.258 2.368-3.64 2.809a5.366 5.366 0 0 1-1.213.27c-1.048.141-1.775.05-2.952-.369-1.714-.61-3.104-2.081-3.661-3.876-.275-.886-.22-1.9.173-3.15.435-1.381 1.553-2.507 3.061-3.081 1.373-.523 2.354-.49 3.673.121.73.339 1.112.623 1.598 1.189.719.836 1.094 2.028.974 3.096-.053.476-.385 1.336-.653 1.69-.801 1.06-1.704 1.517-2.996 1.517-.975 0-1.654-.292-2.321-.998-1.158-1.224-.855-3.177.6-3.871.442-.211 1.058-.238 1.485-.064.308.125.928.73.988.961a.981.981 0 0 1-.252.879c-.272.264-.588.261-.998-.01-.38-.25-.447-.254-.669-.038-.357.348-.104.921.546 1.237.729.354 1.456.176 2.016-.493.754-.9.645-1.948-.302-2.916-.93-.95-2.069-1.142-3.306-.555-1.872.887-2.547 3.113-1.485 4.9.857 1.44 2.572 2.335 4.118 2.146 1.131-.138 2.084-.597 2.925-1.408 1.072-1.034 1.464-2.134 1.38-3.874-.051-1.05-.24-1.58-.937-2.622ZM16.38 14.197c.06-.17.09-.337.067-.372-.082-.13-1.634.819-2.491 1.522-1.28 1.05-2.605 3.187-3.154 5.086-.347 1.2-.486 2.03-.483 2.89.002.815.03.838.541.464a7.493 7.493 0 0 1 2.752-1.242c.082-.018.58-.05 1.105-.071 1.05-.043 1.743.052 2.635.36 1.854.643 3.267 2.067 3.916 3.952.38 1.101.392 2.102.042 3.287-.346 1.17-.87 2.004-1.712 2.726-.54.463-.554.472-1.202.808-.976.506-1.739.632-3.04.505-1.284-.126-2.056-.494-3.053-1.455-.503-.486-.66-.691-.894-1.173-.518-1.066-.647-2.185-.366-3.175.205-.722.498-1.186 1.157-1.83.673-.659 1.313-1.002 2.11-1.133.602-.1 1.524-.047 2.015.114.752.246 1.643 1.07 2.022 1.87.134.283.156.449.156 1.191 0 .798-.015.89-.193 1.244-.652 1.295-2.054 1.887-3.269 1.38-.558-.233-1.099-.889-1.21-1.466-.075-.39.137-.997.459-1.31.233-.227.312-.262.594-.262.259 0 .373.041.553.198.241.21.274.407.163.984-.04.212-.023.266.116.362.35.238.736.051.946-.456.234-.566.111-1.237-.304-1.663-.307-.315-.705-.478-1.256-.513-.44-.028-.543-.01-.878.156-.788.39-1.437 1.215-1.539 1.958-.098.71.366 1.827 1.003 2.414 1.017.938 2.664 1.148 3.895.497 1.443-.764 2.392-2.496 2.161-3.946-.096-.603-.419-1.43-.737-1.89-.81-1.17-2.49-2.099-3.795-2.1-2.107-.001-4.179 1.33-4.987 3.206-.326.755-.4 1.109-.44 2.07-.037.95-.034.974.19 1.62.448 1.292 1.217 2.346 2.256 3.093 1.087.782 2.07 1.105 3.547 1.162 1.024.04 1.818-.096 2.696-.46 1.64-.68 3.139-2.223 3.746-3.856.492-1.326.572-2.227.323-3.663-.147-.845-.708-2.063-1.346-2.922a10.973 10.973 0 0 0-1.43-1.493c-.631-.513-1.41-1.246-1.706-1.606-.316-.384-.928-1.294-1.076-1.6-.25-.52-.572-1.467-.634-1.869-.28-1.825-.297-2.062-.185-2.685a7.72 7.72 0 0 1 .214-.908Zm14.85 5.745c.81-.925 1.319-1.965 1.43-2.924.027-.238.077-.449.11-.469.196-.118 1.442 1.467 1.966 2.503.386.76.772 1.78.7 1.85-.025.025-.23-.021-.456-.104-.889-.324-1.5-.425-2.803-.465l-1.256-.038.309-.353Zm-18.477-.56c.343-.67.92-1.49 1.395-1.986.244-.254.473-.462.508-.462.085 0 .095.039.24.93.153.94.408 1.64.92 2.534.217.38.377.706.356.727-.021.02-.402 0-.846-.046-.928-.097-1.596-.035-2.605.24-.523.142-.652.18-.684.142-.012-.015-.01-.04-.01-.077 0-.177.506-1.572.726-2.002Zm21.388 4.297c-.68-.276-1.053-.346-2.123-.399-.505-.024-.967-.05-1.026-.057-.058-.007-.345.036-.636.095-1.565.318-2.79.951-3.794 1.964-1.17 1.178-1.87 2.613-2.218 4.55-.222 1.23-.232 1.268-.547 2.069-.257.652-.542 1.123-1.128 1.862-.769.971-1.437 1.54-2.52 2.143-.301.168-.548.328-.549.355 0 .058.952.505 1.638.769 2.116.813 5.59.639 8.166-.41.113-.047.186-.074.192-.111.01-.062-.16-.151-.62-.401-1.592-.864-2.834-2.408-3.264-4.059-.152-.586-.167-.766-.142-1.729.037-1.38.239-2.133.83-3.091.82-1.327 2.132-2.296 3.743-2.763.502-.145.748-.174 1.486-.175.86-.001.908.007 1.69.283 1.543.543 2.469 1.272 3.183 2.505.61 1.054.793 2.49.469 3.684-.222.816-.57 1.393-1.229 2.034-1 .973-1.837 1.319-3.18 1.316-1.223-.003-2.092-.312-2.935-1.045-.84-.729-1.148-1.527-1.095-2.82.044-1.04.195-1.435.78-2.046.743-.773 1.38-1.032 2.388-.971.724.044 1.003.135 1.521.497.634.442.956 1.074.956 1.874 0 .347-.039.473-.252.82-.138.225-.321.465-.407.533-.607.48-1.357.532-1.8.123-.37-.342-.264-.749.3-1.164.446-.327.494-.543.188-.842-.184-.179-.263-.206-.601-.206-.33 0-.435.034-.69.224-.435.324-.63.724-.63 1.29 0 .601.23 1.064.731 1.474.55.45.838.557 1.498.56.49.004.627-.024 1.026-.21 1.25-.58 1.97-1.864 1.769-3.154-.17-1.088-1.034-2.155-2.17-2.677-.466-.215-1.376-.432-1.57-.374a4.471 4.471 0 0 1-.512.074c-.474.048-1.304.365-1.796.687-1.472.96-2.242 2.862-1.842 4.545.136.57.544 1.502.817 1.864 1.04 1.378 2.947 2.286 4.52 2.152 2.683-.23 4.798-2.033 5.388-4.593.433-1.881-.309-4.164-1.84-5.66-.657-.64-1.237-1.013-2.163-1.389Zm-9.652 2.045c.618-.311.643-1.194.043-1.55a.926.926 0 0 0-1.256.298c-.476.761.397 1.663 1.213 1.252Zm-.856 9.005c.314-.41.92-1.402.92-1.506 0-.035.045-.1.1-.144.08-.066.12-.016.222.284.244.726.772 1.564 1.49 2.366l.448.502-.322.079c-.538.132-1.89.2-2.74.138-.773-.056-1.36-.149-1.441-.227-.021-.02.202-.28.497-.575.295-.296.667-.709.826-.917Z" fill="#A4D8D6"/></g><defs><clipPath id="a"><path fill="#fff" d="M0 0h48v48H0z"/></clipPath></defs></svg>