<svg fill="none" xmlns="http://www.w3.org/2000/svg" viewBox="0 0 48 48"><g clip-path="url(#a)"><path d="M48 24c0 13.255-10.745 24-24 24S0 37.255 0 24 10.745 0 24 0s24 10.745 24 24Z" fill="#884E6F"/><path fill-rule="evenodd" clip-rule="evenodd" d="M21.032 9.899a5.951 5.951 0 0 0-1.282-.611c-.808-.254-1.598-.353-1.958-.245-.53.159-.913.485-1.133.962-.12.259-.218.514-.218.568 0 .053-.17.261-.375.462-.477.467-.633.772-.633 1.24 0 .427.097.478.275.141.258-.485 1.776-.962 2.647-.83 1.11.169 2.352 1.01 2.796 1.895.403.802.545 1.463.547 2.543.003 1.379-.177 1.976-.768 2.554-.647.632-1.115.761-2.75.758-2.153-.005-3.244-.292-4.647-1.222-1.26-.836-1.94-1.795-1.942-2.738 0-.563.16-.914.44-.954.321-.047.48.134.372.423-.13.347-.018.723.297.991.735.625 2-.119 2-1.175 0-.583-.126-.879-.577-1.35-.56-.585-.817-.693-1.665-.7-.653-.006-.794.026-1.296.29-.31.162-.651.41-.76.549-.422.542-.926 1.756-1.165 2.805-.424 1.864-.287 3.609.475 6.006.41 1.292.642 2.257.813 3.379.198 1.308.282 3.965.158 5.057-.075.665-.075.957.002 1.127.259.575 1.192.473 1.3-.142.492-2.806.151-7.352-.723-9.633-.056-.143-.025-.164.199-.139.242.029.285.093.512.777.614 1.85.918 4.41.793 6.697-.05.921-.037 1.094.101 1.295.286.415.825.356 1.068-.117.12-.234.163-.647.198-1.893.06-2.234-.195-4.762-.622-6.148-.097-.315-.162-.586-.145-.604.017-.017.139-.004.27.03.182.045.261.146.331.42l.18.707c.237.93.387 2.165.454 3.714l.072 1.703.291.263c.28.252.302.256.562.12.416-.217.475-.704.356-2.938-.076-1.432-.257-2.736-.505-3.648-.048-.177-.021-.208.177-.208.129 0 .256.035.282.077.095.156.43 2.224.561 3.474.159 1.504.26 1.715.833 1.718.481.002.527-.143.46-1.459a23.997 23.997 0 0 0-.198-2.053c-.203-1.29-.26-1.594-.188-1.63.03-.014.08.016.15.042.257.096.307.268.489 1.68.146 1.136.28 1.387.736 1.387.545 0 .653-.626.364-2.097-.084-.428-.126-.805-.094-.838.111-.113.862.337 1.11.664l.248.33-.192.531c-.521 1.44-.666 2.165-.736 3.675-.067 1.43-.08 1.505-.405 2.259-.185.428-.337.844-.337.924 0 .199-.314 1.018-.641 1.672-.494.988-.793 1.043-2.187.4-.44-.204-1.18-.123-1.4.152a.755.755 0 0 0-.004.923c.16.2.164.2.389.025.26-.202.619-.314.681-.212.023.038-.1.209-.274.38-.359.35-.415.71-.15.952.232.212.436.192.786-.078.165-.127.403-.231.53-.231.24 0 .794.366 1.16.768.189.208.204.274.118.523-.124.359-.056.544.224.615.56.142 1.006-.352.793-.877l-.6-1.48.237-.492c.13-.27.39-.657.575-.86.185-.204.435-.526.555-.717.252-.401.352-.423.648-.141.255.242.415.177.734-.297.141-.209.206-.442.206-.734 0-.397.038-.466.496-.924l.496-.494.229.451c.125.249.376.595.556.77.363.352.412.536.169.623-.77.276-.828 1.193-.106 1.653.5.319.512.684.052 1.566-.354.68-.623.838-1.205.713-.522-.113-.78.044-.775.472.005.414.18.688.637.998.442.3.606.324.865.126a.695.695 0 0 1 .349-.136c.15 0 .164.05.11.407-.053.36-.023.463.255.903.426.672.585.817.9.817.223 0 .339-.096.68-.565.355-.487.428-.64.435-.914 0-.026-.023-.178-.053-.339-.068-.37.114-.46.428-.211.124.099.309.18.41.18.316 0 .965-.574 1.094-.966.217-.664-.038-.929-.74-.767-.383.089-.464.08-.684-.081-.297-.218-.844-1.257-.844-1.605 0-.252.094-.374.618-.796.241-.194.297-.306.297-.589 0-.375-.282-.836-.513-.836-.276 0-.236-.283.095-.652.183-.206.404-.528.49-.716.087-.189.194-.37.24-.403.045-.033.286.147.537.4.407.411.46.514.517.984.106.895.552 1.337.96.95.274-.26.35-.245.556.105.096.165.325.467.51.67.183.205.448.572.588.816.297.518.282.798-.084 1.605-.387.856-.247 1.418.355 1.418.41 0 .53-.168.455-.639-.071-.447.027-.591.694-1.024.523-.339.747-.348 1.138-.047.363.28.545.29.786.046.277-.28.224-.544-.187-.939l-.37-.355h.266c.147 0 .367.08.49.178.244.193.358.16.52-.148a.667.667 0 0 0-.317-.92c-.438-.184-.672-.161-1.515.15-.414.153-.842.277-.952.277-.34 0-.662-.35-1.006-1.09-.182-.392-.39-.83-.46-.974a1.323 1.323 0 0 1-.13-.481c0-.12-.15-.564-.334-.985-.32-.735-.334-.812-.358-1.97-.031-1.482-.134-2.074-.589-3.402l-.355-1.037.33-.344c.338-.352.911-.686 1.009-.587.03.03-.015.487-.1 1.014-.198 1.24-.194 1.494.03 1.72.21.212.354.229.68.078.252-.115.285-.19.37-.818.216-1.601.342-2.11.535-2.16.106-.029.21-.033.232-.011.022.022-.027.384-.11.805-.222 1.14-.444 3.303-.381 3.72.072.476.189.605.548.605.554 0 .635-.225.867-2.41.127-1.194.452-2.796.584-2.88.202-.13.452-.083.393.072-.311.819-.597 3.334-.603 5.294-.002 1.032.002 1.052.26 1.313.447.451.932.144.985-.625l.13-1.936c.1-1.516.402-3.304.666-3.937.113-.271.195-.346.378-.346.129 0 .234.013.234.03 0 .016-.103.334-.228.705-.421 1.25-.547 2.472-.549 5.306l-.002 2.573.257.224c.142.122.373.223.515.223.487 0 .51-.11.517-2.488.007-2.348.12-3.281.648-5.325.297-1.151.347-1.248.64-1.248.082 0 .14-.004.17.023.068.062 0 .278-.226 1.04-.436 1.477-.803 4.947-.69 6.519.083 1.133.23 2.233.324 2.41.231.436.943.407 1.24-.05.139-.215.142-.345.035-1.431-.195-1.996-.02-4.656.425-6.43a44.2 44.2 0 0 1 .496-1.711c.567-1.833.685-2.544.678-4.069-.008-1.609-.215-2.604-.782-3.762-.442-.905-.938-1.403-1.671-1.68-.984-.372-1.836-.21-2.612.498-.437.399-.707 1.14-.609 1.671.11.593.876 1.145 1.59 1.146.118 0 .338-.125.49-.278.254-.257.274-.323.245-.81-.032-.526-.03-.53.238-.56.384-.044.508.178.508.909 0 1.023-.548 1.86-1.769 2.7-1.202.829-2.007 1.104-3.723 1.277-3.347.336-4.636-.594-4.613-3.33.016-1.955.768-3.292 2.257-4.014.84-.406 1.386-.48 2.239-.298.852.181 1.299.4 1.481.723.207.367.283.324.283-.16 0-.52-.17-.866-.605-1.229a1.707 1.707 0 0 1-.504-.76c-.2-.577-.37-.782-.859-1.038-.26-.136-.52-.188-.897-.18-.599.015-1.73.303-2.26.576-.857.441-2.556 2.159-3.15 3.184l-.258.442-.47-.726c-.56-.867-1.713-2.057-2.517-2.598Zm-3.557.392c-.223 0-.268-.33-.066-.48a.758.758 0 0 1 .385-.121h.22l-.188.3c-.104.166-.262.301-.351.301Zm13.246-.175c0 .318-.23.263-.526-.125l-.23-.301h.201c.33 0 .555.172.555.426Z" fill="#fff"/></g><defs><clipPath id="a"><path fill="#fff" d="M0 0h48v48H0z"/></clipPath></defs></svg>