<svg fill="none" xmlns="http://www.w3.org/2000/svg" viewBox="0 0 48 48"><g clip-path="url(#a)"><path d="M48 24c0 13.255-10.745 24-24 24S0 37.255 0 24 10.745 0 24 0s24 10.745 24 24Z" fill="#4C4D57"/><path d="M15.524 34.837 13 35.469V12.262a1.262 1.262 0 1 1 2.525 0v22.575ZM28.157 22.65l-.02-.006.024.008c.143.042.609.179.019.081 1.298.768 2.41 1.623 3.445 2.42 3.129 2.41 5.564 4.285 10.375 1.573-4.334 4.182-7.826 4.178-13.512 2.72-4.547-1.168-7.696-1.396-10.988.694l-.061-6.478-.031-3.269-.064-6.783c4.117-1.061 7.63 1.314 11.142 3.688 4.168 2.818 8.336 5.635 13.514 2.716-4.334 4.182-7.826 4.178-13.512 2.72l-.205-.053-.126-.032Z" fill="#C6CACE"/></g><defs><clipPath id="a"><path fill="#fff" d="M0 0h48v48H0z"/></clipPath></defs></svg>
