<svg fill="none" xmlns="http://www.w3.org/2000/svg" viewBox="0 0 48 48"><g clip-path="url(#a)"><path d="M48 24c0 13.255-10.745 24-24 24S0 37.255 0 24 10.745 0 24 0s24 10.745 24 24Z" fill="#294B78"/><path fill-rule="evenodd" clip-rule="evenodd" d="M24.79 6.1c.607.11.638.12.638.397 0 .268-.03.288-.406.288h-.405v3.267l.588.06h.008c1.015.11 1.025.11 1.025.496 0 .16 0 .246-.044.293-.052.055-.165.055-.412.055h-.456v3.575l.284.05c1.49.307 2.888 1.003 3.941 1.966 3.08 2.83 3.435 7.269.831 10.635-1.003 1.291-2.715 2.403-4.326 2.78l-.73.18v2.343l.841-.189c2.29-.496 3.607-1.191 5.249-2.75a10.038 10.038 0 0 0 2.989-5.224c.425-1.926-.02-5.432-.82-6.593-.325-.457-.325-.566 0-.358.13.09.465.209.729.278.486.12.486.12.81.914.436 1.062.639 2.274.639 3.853 0 1.827-.233 2.82-.993 4.359-1.166 2.363-3.09 4.38-5.138 5.402-2.249 1.122-5.44 1.54-7.943 1.023-2.544-.527-4.043-1.281-5.644-2.83-1.256-1.222-1.915-2.086-2.563-3.377-.639-1.25-.882-1.976-1.014-3.028-.263-2.066-.06-3.893.618-5.541.254-.586.345-.715.527-.715.132 0 .446-.11.7-.239.313-.149.476-.188.476-.109 0 .07-.071.179-.152.248-.193.15-.517 1.023-.79 2.086-.173.695-.213 1.152-.213 2.581-.01 1.63.01 1.798.273 2.682 1.094 3.585 3.86 6.256 7.468 7.2l.297.076c.53.139.788.206.91.11.118-.094.11-.338.097-.814a35.9 35.9 0 0 1-.007-.277l-.03-1.151-.76-.219c-2.737-.784-4.874-2.999-5.584-5.819-.314-1.202-.243-3.078.152-4.22.517-1.5 1.55-2.92 2.756-3.794 1.014-.725 1.784-1.072 3.364-1.48.091-.03.122-.476.122-1.827v-1.787h-.456c-.25 0-.362 0-.414-.055-.042-.046-.042-.13-.042-.283 0-.376.01-.377 1.084-.505l.01-.001.527-.07v-1.32c0-.725.03-1.46.06-1.629.029-.141.044-.218.012-.259-.038-.049-.141-.049-.366-.049-.395 0-.415-.02-.415-.298 0-.258.04-.298.385-.347l.07-.014.07-.013c.155-.03.297-.057.336-.072.203-.07.608-.05 1.236.06Zm-6.415 3.267c.223.556.203.814-.1 1.47-.203.417-.548.834-1.328 1.579-.588.566-1.044 1.062-1.023 1.122.01.05.445-.248.952-.675 1.439-1.202 1.672-1.36 1.773-1.202.05.08.091.298.091.497 0 .307-.121.496-.871 1.34-.993 1.122-2.472 2.652-2.523 2.602-.02-.02.02-.258.081-.536.111-.457.213-.586 1.206-1.49 1.61-1.48 1.996-2.026.699-1.003-.922.725-1.986 1.46-2.118 1.46-.06 0-.152-.08-.213-.179-.06-.119 0-.337.234-.814.425-.844 1.033-2.373 1.226-3.118.08-.318.162-.596.172-.616.121-.11 1.368-.824 1.459-.824.07-.01.192.169.284.387Zm12.352.02c.385.228.709.457.73.516.263 1.053.577 1.937 1.073 3.03.517 1.151.578 1.36.456 1.479-.111.109-.182.119-.375.01-.273-.14-1.398-.944-2.188-1.57-.932-.734-.578-.277.76 1.004 1.155 1.092 1.317 1.29 1.428 1.708.061.268.102.496.081.516-.05.05-1.357-1.281-2.492-2.542-.912-1.023-.932-1.053-.892-1.47.03-.238.071-.457.112-.486.07-.07.557.288 1.753 1.28.506.428.952.745.982.696.03-.05-.395-.497-.952-1.003-.81-.735-1.074-1.043-1.358-1.619-.202-.387-.364-.794-.364-.913 0-.298.314-1.053.435-1.053.061 0 .426.189.81.417Zm-14.875 1.708c-.141.427-.334.914-.425 1.082l-.172.318-.081-.844c-.04-.467-.04-.854 0-.874.04-.01.253-.129.476-.258.223-.139.415-.228.436-.218.01.02-.092.377-.233.794Zm16.729-.487c.415.239.425.259.334.566-.05.18-.09.547-.09.805 0 .268-.041.457-.092.427-.111-.07-.72-1.688-.72-1.907 0-.188.061-.179.568.11Zm-18.725.408c.03.188-.03.218-.466.278-.74.089-1.033.516-.79 1.102.233.546.963.645 1.358.189.192-.219.233-.358.202-.765-.02-.387.01-.516.142-.606.254-.159.406.04.456.606.05.566-.263 1.261-.679 1.46l-.259.125-.4.193c-.81.377-1.175 1.618-.617 2.095.496.417 1.276.238 1.276-.308 0-.278-.182-.457-.456-.457-.476 0-.628-.526-.202-.715.365-.159.983.05 1.317.437.233.278.263.377.213.755a2.06 2.06 0 0 1-.274.735c-.253.347-.912.675-1.357.675-.76 0-1.622-.715-1.743-1.44l-.003-.015-.002-.014a.582.582 0 0 0-.07-.232c-.103-.15-.393-.178-1.457-.279l-.07-.006C8.316 14.67 8 14.63 8 14.54c0-.05.334-.278.73-.517.891-.526 1.722-1.171 2.664-2.055.892-.844.973-.904 1.44-1.072.546-.19.982-.14 1.023.119Zm21.633 0c.172.089.77.585 1.327 1.102.547.506 1.48 1.241 2.077 1.628.588.388 1.085.745 1.105.785.03.09-.243.139-1.956.298-1.337.139-1.57.208-1.57.526 0 .606-1.024 1.45-1.763 1.46-.436 0-1.165-.378-1.378-.725-.558-.894-.173-1.758.85-1.926.427-.07.67.089.67.427 0 .178-.071.248-.274.288-.446.099-.588.198-.618.466-.07.606.79.795 1.307.288.324-.327.365-.635.162-1.132-.233-.526-.658-.953-1.084-1.062-.78-.209-1.277-1.152-1.013-1.937.091-.288.172-.347.334-.328.203.03.223.08.193.586-.03.467 0 .596.202.815.233.258.345.298.77.278.315-.01.73-.437.73-.735 0-.407-.355-.745-.861-.824-.497-.07-.608-.16-.517-.408.081-.188.8-.119 1.307.13Zm-21.876.695c.233.09.203.566-.05.715-.173.109-.254.109-.456-.03-.274-.169-.294-.268-.142-.556.111-.189.354-.239.648-.13Zm21.44.129c.152.288.132.387-.152.566-.243.159-.273.159-.456-.01-.223-.199-.273-.606-.07-.675.273-.12.577-.06.678.119Zm-24.165 4.17c.111.527.668 1.043 1.742 1.649.01 0-.111.358-.283.774-.669 1.699-.79 4.777-.264 6.723.639 2.374 1.399 3.665 3.253 5.541.881.894 1.57 1.4 2.543 1.887 2.624 1.291 5.583 1.788 8.116 1.36 3.688-.635 6.12-2.035 8.136-4.706 1.014-1.35 1.48-2.324 1.956-4.181.294-1.112.324-1.39.324-2.681.01-1.659-.182-2.85-.638-4.002l-.294-.755.294-.1c.445-.148 1.215-.903 1.469-1.439l.223-.477.212.398c.629 1.201 1.145 3.147 1.338 4.985.415 4.081-1.297 8.41-4.509 11.39-2.482 2.303-5.167 3.495-8.977 3.982l-.547.07-.325 1.836c-.172 1.013-.384 2.056-.466 2.334-.088.284-.125.402-.163.402-.026 0-.053-.06-.1-.164-.132-.328-.608-2.343-.83-3.515l-.163-.894-.507-.08c-2.239-.347-3.688-.764-5.127-1.469-3.06-1.5-5.4-3.833-6.819-6.772-.881-1.828-1.246-3.287-1.337-5.283-.071-1.669.07-2.97.476-4.499.304-1.132.983-2.73 1.125-2.651.04.03.101.179.142.338Zm6.515-6.037c-.142.11-.304.328-.335.496-.04.16-.182.567-.314.884-.304.735-.304.884-.03.636.73-.636 1.256-1.57 1.135-2.026-.071-.248-.112-.248-.456.01Zm5.127 5.392c-2.604.586-4.752 2.641-5.41 5.184-.274 1.023-.274 2.522-.011 3.535.648 2.482 2.665 4.429 5.279 5.114.891.228 2.665.228 3.546-.01 2.057-.546 3.729-1.897 4.661-3.783.517-1.043.71-1.867.71-3.079 0-1.172-.183-1.986-.65-2.959-.86-1.827-2.38-3.138-4.366-3.803-.993-.328-2.756-.417-3.76-.199Zm1.276 1.003c0 .298-.04.367-.364.497-.203.079-.385.149-.406.149-.07 0-.04-.854.03-.924.031-.04.213-.07.406-.07.314 0 .334.02.334.348Zm1.196-.288c.193.05.223.13.223.507 0 .367-.03.436-.162.387-.092-.03-.274-.09-.405-.12-.203-.049-.244-.119-.244-.446 0-.407.081-.457.588-.328Zm-4.144 1.102c-.466.934-.466 2.135 0 3.039l.182.348-.557.05c-1.013.108-1.844.605-2.634 1.608l-.233.298.05-.695c.162-1.976 1.206-3.704 2.939-4.846.223-.15.415-.249.435-.239.01.02-.07.209-.182.437Zm1.53-.03c0 .239-.071.596-.152.785-.193.457-.193 1.231-.01 1.579.142.268.101.665-.091.973-.102.169-.537-.467-.71-1.033-.192-.615-.192-.893 0-1.51.142-.466.68-1.23.872-1.23.05 0 .09.198.09.436Zm3.89-.109c.65.834.77 1.957.284 2.86-.152.288-.324.536-.385.556-.06.02-.172-.09-.233-.248-.101-.238-.09-.387.051-.814.152-.457.162-.596.05-1.033-.182-.725-.253-1.648-.12-1.648.05 0 .212.148.354.327Zm1.43.03c1.104.715 2.117 2.046 2.522 3.307.274.864.436 2.095.274 2.095-.05 0-.122-.08-.152-.179-.101-.317-.993-1.112-1.53-1.36-.274-.14-.77-.268-1.084-.308l-.578-.07.213-.407c.162-.288.233-.645.263-1.26.041-.735.01-.934-.212-1.46-.132-.338-.223-.616-.183-.616.03 0 .244.119.466.258Zm-2.99.606c.274.179.497.427.507.546 0 .05-.527.08-1.165.08h-1.165l.162-.249c.354-.526 1.175-.705 1.661-.377Zm.507 1.5c0 .049-.132.208-.284.357-.547.506-1.428.437-1.854-.15l-.203-.287h1.166c.648 0 1.175.04 1.175.08Zm-1.824 1.727c-.132.417-.608 1.232-.871 1.48-.213.198-.274.208-.497.09-.314-.17-.314-.19.04-.636.274-.338.609-.944.75-1.37.061-.16.082-.17.355-.01.264.148.284.208.223.446Zm2.787 1.053c.273.317.273.328.09.466-.11.08-.242.15-.303.15-.183 0-.76-.686-.953-1.133-.334-.764-.334-.824-.03-.973l.284-.139.314.656c.172.357.435.794.598.973Zm-1.976-.814c0 .268.425 1.022.83 1.48l.406.446-.345-.08c-.446-.089-1.682-.089-2.046.01-.12.033-.19.052-.205.032-.02-.03.08-.142.326-.419.365-.397.831-1.32.831-1.638 0-.06.05-.07.101-.04.061.03.102.129.102.209Zm-2.787.347c.112.169-.344.566-.74.636-.546.099-1.094.407-1.337.744-.213.298-.983.765-1.084.656-.091-.08.162-.675.446-1.073.436-.635 1.317-1.062 2.178-1.072.264 0 .507.05.537.109Zm6.698.04c.658.188 1.327.755 1.621 1.38.132.278.243.566.243.636 0 .218-.78-.249-1.297-.765-.446-.457-.962-.705-1.449-.705-.172 0-.618-.536-.527-.636.112-.109.902-.06 1.409.09Zm-6.465 1.658c.406.367.547.814.426 1.271-.06.219-.152.397-.203.397-.07 0-1.053-1.579-1.206-1.926-.07-.179.73.03.983.258Zm5.796-.218c0 .139-1.044 1.886-1.125 1.886-.08 0-.294-.566-.294-.784 0-.308.375-.844.72-1.023.375-.198.7-.238.7-.08Zm-6.74 1.546c.357.597.46.77.416.82-.017.019-.059.018-.118.017h-.043c-.445 0-.922-.318-1.145-.755-.182-.377-.192-.476-.08-.824.06-.228.162-.407.202-.407.05 0 .334.417.628.913l.138.231.002.005Zm7.753-.394c0 .536-.364.983-.922 1.142-.476.139-.567.089-.365-.229.082-.119.345-.556.578-.963.395-.675.446-.725.567-.556.082.1.142.377.142.606Zm-3.303-.427c.122.089.162.198.112.367-.061.248-.071.248-1.216.248h-1.165v-.318c0-.377.06-.397 1.226-.417.557-.01.922.03 1.043.12Zm-6.2.725c.03.277 0 .387-.163.486-.365.229-.476.209-.618-.129-.142-.318-.142-.318.233-.516.495-.258.497-.249.547.156v.003Zm10.8-.16c.172.11.325.239.325.289 0 .149-.223.605-.294.605-.051 0-.355-.178-.598-.357-.061-.04.101-.735.172-.735.03 0 .213.09.395.199Zm-6.566 1.38c-.658.934-1.702 1.361-2.826 1.143-.173-.04-.314-.1-.314-.14 0-.158.82-.595 1.114-.595.426 0 1.044-.328 1.348-.705.273-.348.901-.546.962-.308.02.08-.111.348-.284.606Zm1.895-.694c.183.05.466.248.639.437.354.397.87.665 1.266.665.274 0 1.165.477 1.165.616 0 .119-.891.208-1.357.139-.71-.11-1.48-.626-1.855-1.252-.456-.744-.445-.774.142-.605Zm-5.502 1.171c-.375.259-.537.219-.76-.188-.08-.15-.04-.209.233-.378l.325-.188.567.516-.365.238Zm9.829-.387c.03.04-.05.209-.173.358l-.233.278-.374-.219c-.203-.119-.375-.238-.375-.258 0-.03.121-.159.273-.288.253-.208.304-.218.558-.09.151.08.293.18.324.22Zm-4.985.517c.537.764 1.61 1.31 2.766 1.42.294.02.294.03-.203.278-1.033.526-1.53.635-2.888.635-1.388-.01-1.935-.129-2.938-.645l-.557-.288.415-.01c.993-.01 2.158-.586 2.695-1.34.183-.249.345-.448.375-.448.03.01.183.18.335.398Zm6.069-15.184c-.233-.327-.314-.546-.314-.874 0-.466.07-.516.405-.248.213.169 1.064 2.205.922 2.205-.101 0-.648-.586-1.013-1.083Zm-19.2 1.887c-.285.228-.71.576-.953.794l-.456.388h.699c.385 0 .8.03.922.06.172.049.263-.01.425-.328a6.46 6.46 0 0 1 .335-.537c.091-.129.06-.218-.122-.466-.131-.18-.263-.318-.294-.308-.03 0-.283.178-.557.397Zm24.357.209.223-.338.233-.338.486.378c.274.208.73.576 1.014.824l.527.447h-.618c-.345 0-.75.03-.912.06-.274.049-.325.01-.628-.497l-.325-.536Z" fill="#D0E1F5"/></g><defs><clipPath id="a"><path fill="#fff" d="M0 0h48v48H0z"/></clipPath></defs></svg>