<svg fill="none" xmlns="http://www.w3.org/2000/svg" viewBox="0 0 48 48"><g clip-path="url(#a)"><path d="M48 24c0 13.255-10.745 24-24 24S0 37.255 0 24 10.745 0 24 0s24 10.745 24 24Z" fill="#8D2918"/><path fill-rule="evenodd" clip-rule="evenodd" d="M19.952 5.28c0-.028-.238-.553-.53-1.167-.29-.614-.545-1.115-.566-1.113-.02.001-.355.47-.744 1.04l-.708 1.037.207.055c.115.03.31.17.434.313.188.213.227.32.227.616 0 .683-.579 1.01-.994.562-.157-.17-.238-.195-.616-.195-.24 0-.435.027-.435.06 0 .196 1.32.89 1.69.89.037 0 .067-.018.09-.011.081.027.046.41-.136 3.444-.06.984-.108 1.876-.109 1.982-.001.16-.042.2-.249.24-.303.056-.57.314-.783.754-.142.293-.15.36-.068.56.322.78.007 1.206-1.163 1.57-.865.27-1.979 1.037-2.078 1.433-.129.513.42 1.319 1.017 1.49.234.067 2.032.21 2.794.222l.166.003-.044.931c-.024.512-.056.971-.071 1.02-.02.069-.1.064-.338-.02-.396-.14-.676-.078-.868.193-.084.117-.2.213-.26.213-.175 0-.467.343-.467.547v.19l.163-.153c.298-.277.484-.27.759.03.25.274.306.437.176.517-.04.024-.104.167-.145.317-.09.338.017.782.22.909.1.062.142.17.142.358 0 .185.061.341.197.502l.196.233-.125 2.238c-.24 4.279-.297 5.052-.37 5.027-.17-.056-.555-.732-.555-.972 0-.136-.027-.247-.06-.247-.074 0-.305.476-.305.63 0 .061-.025.1-.055.084-.517-.264-.775-.338-1.271-.361l-.56-.027.106.22c.058.122.14.283.182.358.083.149-.015.261-.23.263a.578.578 0 0 0-.256.1 1.66 1.66 0 0 1-.352.167l-.207.067.369.345c.254.238.432.346.572.347l.204.003-.2.15c-.111.082-.202.196-.202.252 0 .057-.065.144-.146.194-.197.123-.184.203.033.203.099 0 .258.035.353.078.139.064.286.042.736-.11.68-.228.77-.23 1.357-.032l.462.156-.044.666c-.136 2.058-.43 7.503-.405 7.525.016.014.214.048.441.075l.413.05.044-.607c.025-.334.112-1.806.194-3.273.082-1.466.172-2.969.2-3.339l.051-.672.663.315c.364.173 1.042.533 1.507.8.465.267.91.486.99.486.078 0 .301-.14.495-.31.38-.334.782-1.085 1.055-1.968.104-.337.242-.576.502-.865.347-.388.369-.4.731-.395.206.003.392.024.414.046.022.022.006.183-.034.36-.14.602-.097 1.239.11 1.654.236.472.433.595 1.558.967.992.328 1.323.508 1.682.917l.243.278-.04.845c-.058 1.237-.52 2.681-.947 2.956-.09.058-.361.141-.602.184-.71.127-.89.198-1.239.49-.182.152-.331.297-.331.322 0 .025.097.03.217.013.179-.027.232.002.305.162.076.167.119.187.313.145l.224-.047-.195.209c-.166.178-.55 1.098-.485 1.16.037.034 1.109-.09 1.239-.145.097-.04.12-.008.113.157-.004.113 0 .352.007.53l.015.324.145-.156c.08-.086.29-.22.465-.297.419-.186.789-.553 1.023-1.016.105-.206.226-.397.27-.424.045-.027.17.036.28.141.222.213.493.245.706.083.125-.094.127-.107.018-.11-.068 0-.21-.076-.316-.167-.19-.163-.19-.172-.114-.675.043-.281.158-1.108.255-1.838.096-.73.22-1.42.274-1.534.071-.148.196-.238.44-.316.323-.104.336-.118.234-.256a.532.532 0 0 1-.086-.326c.017-.14.08-.194.288-.243.146-.035.34-.142.432-.24l.167-.177h-.163c-.513 0-.859-.49-.775-1.1l.048-.349-.682-.455c-.375-.25-.694-.465-.708-.477-.015-.012.126-.197.314-.41.364-.412.717-1.08 1.024-1.933.104-.288.238-.641.297-.784l.11-.261.352.253c.194.14.58.36.858.492.448.213.574.24 1.125.238.533-.001.678-.03 1.023-.205 1.303-.66 2.118-2.226 2.118-4.072 0-.688-.03-.884-.246-1.577a18.744 18.744 0 0 1-.447-1.96c-.184-1.085-.196-1.276-.163-2.666.032-1.304.06-1.587.223-2.191.336-1.251.633-3.384.633-4.546 0-1.854-1.037-3.685-2.46-4.342-.903-.418-1.526-.293-2.188.439-.68.751-1.305 2.447-1.389 3.774-.043.67-.031.734.38 2.149.27.926.273.956.2 1.59-.061.54-.113.704-.31.992-.316.463-.767.794-1.25.92l-.397.102.353.054c1.25.192 2.63-.787 2.863-2.031.063-.334.145-.344.249-.03.171.52.082 1.534-.166 1.878-.044.06.022.017.146-.095.123-.113.32-.393.435-.621.188-.372.21-.49.21-1.11 0-.478-.04-.817-.133-1.09-.132-.393-.582-1.123-.994-1.612a2.765 2.765 0 0 1-.367-.647l-.152-.39.309.264c.272.233.855.48 1.132.48.148 0 .122-.043-.238-.403-.5-.5-.722-1.036-.712-1.715.01-.71.227-1.293.64-1.723.26-.272.352-.322.59-.322.369 0 .855.24 1.078.533.625.82 1.076 2.531 1.074 4.069-.001.653-.032.853-.208 1.352a6.918 6.918 0 0 1-.493 1.06c-1.132 1.87-1.508 3.387-1.35 5.44.114 1.5.397 2.349 1.102 3.312.439.6.582 1.613.343 2.428-.13.443-.575 1.017-.931 1.201-.523.271-1.583.016-2.186-.527l-.366-.329-.002-.522c-.004-.74-.163-1.54-.416-2.094-.252-.55-.61-1.037-1.585-2.152-.747-.855-1.102-1.476-1.456-2.542-.264-.795-.485-2.006-.485-2.655 0-.538.003-.548.164-.49.223.078.627.065.716-.024.049-.049.015-.18-.103-.396a2.744 2.744 0 0 1-.224-.533c-.043-.183-.032-.203.082-.155.704.298.943.315 1.41.102.314-.143.322-.154.183-.254-.317-.226-.501-.445-.635-.757-.167-.389-.158-.934.014-.889.183.048.576.04.63-.013.027-.027-.038-.137-.144-.243-.332-.332-.374-.66-.232-1.833.08-.662.108-1.205.076-1.498-.068-.617-.248-1.412-.402-1.772-.07-.162-.199-.5-.288-.752l-.162-.458.183-.217c.181-.216.307-.494.249-.552-.017-.016-.168.024-.336.09-.274.108-.49.112-2.075.043-1.704-.074-1.781-.071-2.055.069-.157.08-.367.227-.469.329-.15.15-.23.176-.442.142-.163-.027-.549.029-1.047.152-.885.218-.893.226-.878.876.006.245.073.506.188.73.21.411.631.838.683.693.02-.053.122-.178.228-.28.168-.159.245-.18.578-.154.629.049 1.173.618.964 1.01-.081.152-.747.366-1.292.415-.307.028-.392.011-.428-.084-.056-.146-.176-.156-.176-.014 0 .056-.057.202-.126.323-.122.212-.12.23.04.515.132.235.15.326.087.444-.044.081-.113.148-.154.148-.041 0-.055.032-.031.07.07.114.497-.002.7-.19a.68.68 0 0 1 .386-.172c.367 0 .689.495.503.774-.073.11-.61.401-2.54 1.381l-1.64.833v-.284c0-.306.102-.45.453-.63.212-.11.219-.129.173-.471-.03-.229-.016-.407.04-.496.131-.21-.05-.786-.305-.976-.176-.13-.193-.175-.137-.372.08-.28.194-.358.453-.31.18.032.194.021.128-.102-.04-.077-.192-.178-.336-.226l-.262-.086.041-.522c.023-.287.077-1.163.121-1.946.044-.784.102-1.784.129-2.223l.049-.799.476-.116c.497-.121 1.314-.483 1.314-.583 0-.122-.782-.153-1.047-.042-.452.19-.78-.034-.78-.53 0-.282.04-.365.284-.61.208-.208.344-.284.511-.284.126 0 .228-.023.228-.051Zm3.371 4.782c-.11-.11-.107-.367.004-.479a.225.225 0 0 1 .2-.054c.063.018.204.055.315.081.11.026.2.069.2.095-.006.21-.58.496-.719.357ZM18.2 21.037c0-.189.021-.693.048-1.12l.047-.78h.31c.31 0 .399.077.399.34 0 .225.498 1.174.83 1.58.189.233.322.459.295.503-.057.09-.925.036-1.545-.098l-.384-.083v-.343Zm.617 2.5c.123-.064.437-.156.698-.204 1.105-.205 2.28-.058 2.784.348 1.546 1.244 2.505 2.17 2.748 2.655.387.77.542 1.867.322 2.278l-.087.162-.345-.265c-.407-.313-1.09-.638-1.813-.862-.456-.142-.557-.15-.864-.073-.19.049-.434.153-.542.232-.334.248-.734.838-.978 1.446-.23.573-.235.609-.244 1.826-.007.908-.042 1.352-.129 1.65-.12.413-.57 1.09-.724 1.09-.047 0-.539-.22-1.093-.488l-1.007-.487v-.476c0-.262.048-1.267.107-2.234.244-3.976.332-5.491.332-5.649-.001-.195.512-.778.835-.948Z" fill="#F7C047"/></g><defs><clipPath id="a"><path fill="#fff" d="M0 0h48v48H0z"/></clipPath></defs></svg>