<svg fill="none" xmlns="http://www.w3.org/2000/svg" viewBox="0 0 162 124"><g clip-path="url(#a)"><path fill-rule="evenodd" clip-rule="evenodd" d="M87.909 1.218C86.18 3.64 84.2 3.801 82.496 1.68l-.668-.807-.92.484c-.508.254-1.152.623-1.43.807l-.506.323.46 1.085c1.153 2.7 2.535 3.806 4.79 3.806.83 0 1.729-.16 2.374-.438 1.06-.485 3.87-2.93 3.87-3.39-.024-.14-.415-.97-.9-1.824L88.67.133l-.76 1.085Zm-6.31 9.156c.09.67.206 1.384.253 1.57l.003.027.01.071.008.056c.022.163.048.347.048.468.023.438 2.188.97 3.523.876 2.188-.138 2.419-.276 2.903-1.568.253-.67.53-1.546.62-1.96l.163-.74h-7.693l.162 1.2Zm-61.748 2.86c2.58-.76 3.2-.877 6.587-1.269.69-.069 4.698-.138 8.867-.138 5.643 0 7.877.092 8.637.323 3.294.97 5.643 3.276 6.91 6.713.437 1.177.53 4.383.16 5.745-.852 3.183-2.556 6.344-2.35 4.29.117-1.038-.597-3.898-1.403-5.56-1.89-3.944-5.643-6.136-12.184-7.15-2.856-.439-3.662-.509-5.758-.439-1.267.046-2.58.138-2.925.207-.147.028-.317.063-.486.098-.255.053-.51.105-.69.133-2.624.461-6.77 2.791-8.682 4.89-2.855 3.161-4.882 7.29-5.62 11.513-.068.37-.184.945-.253 1.268-.276 1.292-.414 3.023-.437 5.306-.023 7.567 1.727 13.45 5.55 18.64 3.294 4.476 7.946 7.568 13.405 8.93 1.428.345 2.625.575 2.67.53.186-.162.209-18.087.047-20.51-.207-2.953-.713-4.452-2.533-7.543-.852-1.43-1.543-2.63-1.543-2.676 0-.254 21.65-.323 24.529-.07 4.905.415 8.084 1.707 10.8 4.43 1.406 1.407 3.11 4.568 3.479 6.46.059.258.118.535.167.77.048.223.087.408.11.498.138.53.115 3.968-.047 4.845-.552 3.322-2.533 7.22-5.09 10.081a41.74 41.74 0 0 0-1.612 1.846c-.834.978-1.678 1.947-2.533 2.907-.392.438-.507.738-.37.922.116.162 1.084 1.361 2.166 2.7a422.44 422.44 0 0 1 4.445 5.744l1.07 1.423c1.66 2.213 1.754 2.34 3.237 4.137.32.398.663.818.96 1.183.32.395.59.725.722.893 1.059 1.315 6.034 6.252 7.116 7.082.645.485 1.244.946 1.313 1.061.07.093.415.07.737-.092.553-.254.622-.392.622-1.569.023-.715.023-12.019.023-25.1l.023-23.83.76.6c1.359 1.014 2.74 3.206 2.994 4.683.026.146.055.321.085.501.05.303.102.62.145.837.046.37.162 5.998.23 12.526.346 32.344.553 48.355.646 49.6.046.485.16.577.737.577h.69l.024-7.152c.138-27.799.53-55.55.783-56.75.115-.509.668-1.893 1.243-3.046 1.014-2.007 1.083-2.1 1.682-1.938.437.115.645.346.714.854.184 1.06.16 54.052-.023 57.651-.23 4.498-.507 6.482-1.912 13.334-.184.969-.391 2.03-.46 2.33-.185 1.084-.76 2.422-1.866 4.36l-.266.471c-.428.762-.656 1.168-.887 1.17-.263.002-.53-.519-1.102-1.633a98.637 98.637 0 0 0-.325-.631c-1.382-2.607-2.694-6.69-3.11-9.597-.068-.553-.154-1.228-.241-1.903l-.242-1.903c-.07-.508-.184-2.999-.253-5.537-.092-3.53-.207-4.683-.46-4.96-.254-.254-.968-.346-2.926-.369-4.583-.069-7.922-1.569-11.561-5.283-2.048-2.074-2.28-2.376-5.06-5.988l-.007-.01c-4.4-5.79-5.16-6.852-6.22-8.674-2.44-4.245-4.63-5.514-9.511-5.468-1.36 0-2.58.07-2.74.116-.14.07-.231.323-.162.6.092.507.092 4.498 0 9.712-.092 4.614.322 6.805 1.797 9.597.829 1.615 1.404 2.376 2.786 3.737l1.106 1.107H26.323l1.658-1.73c1.866-1.915 3.017-4.037 3.685-6.69.323-1.338.392-2.838.438-8.836 0-3.945-.046-7.198-.115-7.22l-.07-.01-.14-.022a181.417 181.417 0 0 1-3.153-.5c-10.042-1.568-15.385-3.898-20.36-8.858-3.616-3.599-6.218-8.49-7.14-13.427l-.171-.892c-.118-.615-.236-1.23-.312-1.6-.092-.53-.162-2.814-.14-5.074.07-4.407.508-7.383 1.683-10.89 2.879-8.674 9.19-14.902 17.665-17.394Zm33.833 31.582c-1.773-1.799-4.652-3.206-7.047-3.483-.668-.07-1.29-.138-1.428-.185-.6-.138-2.88.3-3.524.67-.507.3-.76.692-.921 1.36-.23.97-.208 21.755.023 22.678.437 1.776 1.15 2.03 5.688 2.007 3.156-.023 3.732-.069 4.93-.553 2.37-.923 3.96-2.769 4.95-5.722 2.28-6.736 1.314-12.78-2.671-16.772Zm32.13-29.983c-.047.023-.738.116-1.544.185-1.911.161-2.602.761-2.602 2.307 0 .576.069 1.153.115 1.245.138.231 6.31.231 6.518 0 .39-.392.276-2.214-.14-2.768-.367-.46-2.117-1.176-2.347-.969Zm-4.193 8.854c-.277-1.384.46-2.838 1.566-3.045 1.243-.254 3.454-.139 4.192.207 1.013.485 1.38 1.592.967 2.884l-.208.6-3.2-.023h-3.18l-.137-.623Zm-.045 5.142.023 2.146 3.408.046c3.017.023 3.386 0 3.409-.346.092-1.107.092-3.437.023-3.69-.07-.209-.967-.278-3.478-.278h-3.385v2.122Zm-1.36 5.61c1.013-.09 1.888-.207 1.934-.253.115-.115 7.048.092 8.545.254 4.468.53 15.546 3.137 17.619 4.153 1.082.53 2.764 2.1 5.873 5.467.668.738 1.313 1.338 1.451 1.338.138 0 1.221-.969 2.441-2.145 4.492-4.36 7.992-6.09 15.224-7.452.875-.162 26.717-.323 26.717-.162 0 .07-.967 2.815-2.165 6.137l-.628 1.777c-.933 2.64-1.744 4.937-1.952 5.467-.23.67-.483 1.223-.575 1.223-.093 0-.83-1.015-1.682-2.26-2.395-3.577-3.823-4.823-7.001-6.23-4.929-2.169-11.24-2.538-15.846-.877-3.178 1.13-6.15 3.668-7.946 6.83-1.059 1.868-2.764 6.897-3.109 9.227-.069.438-.161.946-.231 1.13-.529 1.546-.529 9.02-.023 11.79l.107.552c.421 2.192.437 2.275 1.206 4.522 1.106 3.322 2.902 6.76 4.952 9.574 4.1 5.56 9.673 8.19 17.066 8.075 2.833-.047 4.077-.323 4.952-1.085 1.175-1.06 1.198-1.384 1.198-11.004 0-8.605-.023-8.95-.507-10.058-.714-1.684-2.856-2.907-4.698-2.746-.576.07-.645 0-.576-.553l.069-.623h6.034c5.666 0 6.035.023 6.518.461 1.198 1.084 1.244 1.384 1.29 11.327.046 7.683.115 9.482.415 10.728.621 2.353 1.773 4.383 3.708 6.344l.921.946-6.564.046c-14.902.138-17.804.092-20.038-.3-.26-.056-.715-.127-1.112-.188l-.269-.043c-2.925-.46-6.772-1.684-9.328-2.953-6.242-3.137-10.779-8.674-12.852-15.664-.507-1.66-.668-2.307-.99-3.783a28.628 28.628 0 0 1-.184-1.27l-.035-.218a49.145 49.145 0 0 1-.449-3.242c-.092-.692-.23-1.338-.3-1.43-.092-.092-1.082.023-2.234.277-5.55 1.13-10.986 2.307-11.17 2.422-.184.116-.921-.484-.921-.76 0-.093.806-.462 1.796-.809 5.113-1.89 8.407-5.236 9.558-9.689.438-1.66.438-5.537.023-7.544-.898-4.29-3.155-7.382-6.656-9.089-1.428-.692-2.556-1.06-4.49-1.453-1.037-.208-3.548-.139-4.607.161-1.497.392-3.34 1.73-4.56 3.253l-1.06 1.315-.645-1.108c-1.405-2.468-3.777-3.575-7.554-3.53-.466.016-1.276.032-2.086.047l-1.14.023c-2.51.046-3.522-.115-4.996-.83-1.566-.739-3.501-3.069-3.11-3.715.093-.138.945-.323 1.889-.415.944-.092 1.773-.184 1.842-.23.07-.047.853-.139 1.728-.23l.73-.075a53.96 53.96 0 0 0 1.458-.157c.208-.015.695-.068 1.25-.13.303-.032.628-.068.938-.1.378-.04.782-.078 1.149-.114.504-.049.94-.09 1.154-.117.253-.03.813-.08 1.45-.135.35-.03.725-.064 1.084-.097Z" fill="#fff"/></g><defs><clipPath id="a"><path fill="#fff" d="M0 0h162v124H0z"/></clipPath></defs></svg>
