<?xml version="1.0" encoding="UTF-8" standalone="no"?>
<!-- Created with Inkscape (http://www.inkscape.org/) -->
<svg
   xmlns:dc="http://purl.org/dc/elements/1.1/"
   xmlns:cc="http://web.resource.org/cc/"
   xmlns:rdf="http://www.w3.org/1999/02/22-rdf-syntax-ns#"
   xmlns:svg="http://www.w3.org/2000/svg"
   xmlns="http://www.w3.org/2000/svg"
   xmlns:sodipodi="http://sodipodi.sourceforge.net/DTD/sodipodi-0.dtd"
   xmlns:inkscape="http://www.inkscape.org/namespaces/inkscape"
   width="970"
   height="2200"
   id="svg2"
   sodipodi:version="0.32"
   inkscape:version="0.45.1"
   version="1.0"
   sodipodi:docbase="D:\DougsDocs\Wikipedia"
   sodipodi:docname="Human body silhouette.svg"
   inkscape:output_extension="org.inkscape.output.svg.inkscape">
  <defs
     id="defs4" />
  <sodipodi:namedview
     id="base"
     pagecolor="#ffffff"
     bordercolor="#666666"
     borderopacity="1.0"
     gridtolerance="10000"
     guidetolerance="10"
     objecttolerance="10"
     inkscape:pageopacity="0.0"
     inkscape:pageshadow="2"
     inkscape:zoom="0.35"
     inkscape:cx="444.95671"
     inkscape:cy="1188.8382"
     inkscape:document-units="px"
     inkscape:current-layer="layer1"
     width="970px"
     height="2200px"
     inkscape:window-width="748"
     inkscape:window-height="1113"
     inkscape:window-x="-4"
     inkscape:window-y="2" />
  <metadata
     id="metadata7">
    <rdf:RDF>
      <cc:Work
         rdf:about="">
        <dc:format>image/svg+xml</dc:format>
        <dc:type
           rdf:resource="http://purl.org/dc/dcmitype/StillImage" />
      </cc:Work>
    </rdf:RDF>
  </metadata>
  <g
     inkscape:label="Layer 1"
     inkscape:groupmode="layer"
     id="layer1"
     transform="translate(41.500029,630.92312)">
    <path
       style="fill:#e3bba3;fill-opacity:0.375"
       d="M 634.49994,1566.4014 C 630.33034,1564.5314 624.14854,1558.7919 621.07134,1553.9336 C 619.85204,1552.0086 618.04694,1547.5086 617.05994,1543.9336 C 616.07304,1540.3586 614.03854,1534.9586 612.53894,1531.9336 C 609.02904,1524.8532 605.87794,1505.385 604.52694,1482.4336 C 603.62084,1467.0395 603.19034,1464.4417 599.96954,1454.9336 C 598.01334,1449.1586 595.78554,1441.7336 595.01894,1438.4336 C 594.25234,1435.1336 593.18714,1430.6336 592.65184,1428.4336 C 592.11654,1426.2336 591.36174,1420.1586 590.97434,1414.9336 C 590.43904,1407.7131 589.41804,1403.1541 586.71914,1395.9336 C 584.76614,1390.7086 582.85084,1383.5086 582.46284,1379.9336 C 582.02294,1375.8798 580.42374,1370.473 578.21334,1365.5668 C 573.19504,1354.4278 572.73924,1348.5709 576.06274,1337.9336 C 580.82094,1322.7045 580.48084,1300.447 574.95504,1265.4336 C 572.16544,1247.7582 564.31594,1204.1846 561.35414,1189.9336 C 557.19044,1169.8997 555.94274,1165.343 545.56554,1132.2753 C 536.73714,1104.143 536.17614,1098.2481 532.63844,996.43353 L 531.76984,971.43353 L 526.52574,957.94183 C 523.64144,950.52133 519.69244,941.29633 517.75004,937.44183 C 512.21564,926.45923 504.85884,904.36814 502.57874,891.88544 C 501.12294,883.91526 500.49464,876.29806 500.48214,866.46896 C 500.47244,858.74946 500.03374,848.38356 499.50734,843.43356 C 498.98094,838.48356 498.06304,826.55856 497.46744,816.93356 C 496.87184,807.30856 495.52314,793.35856 494.47034,785.93356 C 492.03054,768.72666 481.04194,715.52246 473.50694,684.43356 C 469.93194,669.68306 466.80824,653.75726 465.40184,643.11046 C 464.14334,633.58276 462.63804,625.15816 462.05674,624.38906 C 461.18794,623.23946 459.79054,623.77296 454.20194,627.38766 C 448.72354,630.93116 446.20014,631.91176 441.20194,632.43976 C 437.52914,632.82766 433.86394,632.65866 432.21424,632.02536 C 430.10514,631.21566 429.34004,631.25676 429.06394,632.19476 C 428.86344,632.87606 427.50584,642.43356 426.04724,653.43356 C 424.58854,664.43356 421.85744,680.40856 419.97804,688.93356 C 415.26374,710.31766 409.72514,745.28196 408.53334,761.18216 C 407.98704,768.47046 406.87834,778.93356 406.06954,784.43356 C 404.54354,794.81116 402.46084,842.03216 402.45294,866.43356 C 402.44594,888.00316 401.14764,897.50524 396.09964,912.93354 C 393.67024,920.35853 389.79184,930.93353 387.48104,936.43353 C 385.17024,941.93353 381.97924,951.05073 380.38984,956.69403 C 376.30214,971.20733 376.33984,974.09353 381.52274,1043.5026 C 382.10064,1051.2406 382.57194,1064.2906 382.57024,1072.5026 C 382.56594,1093.393 380.87254,1103.2527 368.49884,1154.4336 C 366.37124,1163.2336 363.88414,1174.4836 362.97184,1179.4336 C 362.05954,1184.3836 360.41304,1192.7086 359.31304,1197.9336 C 358.21304,1203.1586 356.93554,1210.1336 356.47424,1213.4336 C 356.01294,1216.7336 354.72534,1224.3836 353.61304,1230.4336 C 350.87434,1245.3302 348.49994,1272.184 348.49994,1288.2622 C 348.49994,1299.0768 348.95584,1303.2765 351.00774,1311.3655 C 354.73284,1326.0503 355.07464,1332.9785 352.49124,1341.4336 C 344.81504,1366.556 343.46194,1374.0804 342.51074,1396.9336 C 341.79944,1414.0217 341.36364,1417.4849 338.98714,1424.9336 C 337.49554,1429.6086 335.25164,1435.4586 334.00074,1437.9336 C 330.76834,1444.3288 329.30344,1455.2268 329.45694,1471.7382 C 329.53004,1479.6057 329.14884,1487.4807 328.60974,1489.2382 C 328.07064,1490.9957 326.44854,1497.1166 325.00514,1502.8403 C 323.56164,1508.5641 321.46224,1515.0474 320.33964,1517.2478 C 319.21704,1519.4482 317.63854,1523.5402 316.83174,1526.3411 C 316.02494,1529.142 313.76644,1533.7946 311.81284,1536.6804 C 308.79144,1541.1434 307.50474,1542.1517 303.19894,1543.4304 C 292.66044,1546.56 284.02284,1544.7136 279.92184,1538.4547 C 277.61314,1534.9312 278.39334,1524.014 281.37044,1518.1836 C 283.08064,1514.8345 283.23654,1513.9336 282.10634,1513.9336 C 280.39844,1513.9336 274.15574,1524.7682 272.59934,1530.4336 C 271.99494,1532.6336 271.16284,1534.9333 270.75024,1535.5441 C 269.47414,1537.4328 263.74694,1539.9336 260.69754,1539.9336 C 256.56204,1539.9336 251.18364,1536.0105 250.04314,1532.1621 C 249.28664,1529.6095 248.54824,1528.9336 246.51564,1528.9336 C 243.00794,1528.9336 239.56044,1526.3227 237.93664,1522.4364 C 236.98744,1520.1646 235.73454,1519.0305 233.73144,1518.6299 C 230.35874,1517.9554 228.49994,1514.537 228.49994,1509.009 C 228.49994,1506.6557 227.85914,1504.6492 226.83824,1503.806 C 223.86034,1501.3465 220.49994,1492.2255 220.49994,1486.6021 C 220.49994,1480.2541 226.01004,1455.4458 228.20004,1451.9336 C 229.05734,1450.5586 230.79804,1448.3086 232.06804,1446.9336 C 233.33814,1445.5586 236.18764,1440.8336 238.40034,1436.4336 C 240.61304,1432.0336 245.57924,1424.6086 249.43644,1419.9336 C 256.92304,1410.8596 258.87674,1408.1392 265.23634,1397.9336 C 268.00414,1393.492 269.61704,1389.479 270.32964,1385.2614 C 271.02874,1381.1242 273.51234,1374.86 277.86254,1366.2614 C 284.91394,1352.3238 285.55814,1349.2936 284.09734,1336.9336 C 283.31644,1330.3255 283.68994,1328.3085 290.01774,1304.9657 C 292.25764,1296.7028 291.86404,1289.0996 287.55704,1257.4336 C 285.38774,1241.4836 282.66264,1218.7586 281.50134,1206.9336 C 280.34014,1195.1086 278.52904,1177.7836 277.47684,1168.4336 C 276.42464,1159.0836 275.07734,1146.7086 274.48294,1140.9336 C 273.88854,1135.1586 271.78394,1118.9586 269.80614,1104.9336 C 266.55554,1081.8826 266.20004,1077.1766 266.10504,1055.9336 C 266.00324,1033.1656 266.24194,1029.781 270.58454,992.43353 C 271.93364,980.83123 273.83114,969.29223 277.65594,949.43353 C 280.66324,933.81903 280.71654,933.03593 279.86874,916.93353 C 279.39094,907.85854 278.99994,887.15856 278.99994,870.93356 C 278.99994,838.65506 279.53654,842.65346 272.35734,821.43356 C 268.82374,810.98906 264.65364,787.78306 260.45044,755.17236 C 259.33474,746.51606 257.31444,732.84736 255.96094,724.79756 C 254.60734,716.74776 253.49994,708.63386 253.49994,706.76666 C 253.49994,704.89956 252.39894,697.53576 251.05334,690.40276 C 249.70764,683.26966 247.68054,670.68356 246.54854,662.43356 C 245.41664,654.18356 243.81234,642.93356 242.98354,637.43356 C 236.86754,596.84726 228.38144,512.53236 229.93294,507.76676 C 230.17164,507.03346 230.61404,491.58356 230.91614,473.43356 C 231.87244,415.96976 235.07684,386.43606 242.58854,365.85336 C 248.75114,348.96747 250.71004,332.80714 251.00344,296.43356 C 251.19934,272.1349 251.33514,271.1524 259.64194,233.93356 C 265.59414,207.26439 266.89144,193.60813 266.95654,156.93356 C 267.00184,131.35067 265.76734,113.98839 262.40564,92.933558 C 259.20094,72.861418 258.64474,72.578018 256.07994,89.710398 C 254.55084,99.924408 245.65624,136.72958 238.86764,160.93356 C 236.46974,169.483 236.18394,172.28466 236.01074,188.93356 C 235.90494,199.10856 235.31454,209.45856 234.69864,211.93356 C 233.10684,218.33086 223.71044,245.6677 221.46514,250.43356 C 218.20284,257.35825 211.82014,273.09967 208.69274,281.93356 C 194.80264,321.16834 181.76481,354.08779 171.26581,376.43356 C 157.4187,405.90536 150.85375,422.35936 137.55129,460.93356 C 129.04123,485.61086 122.87293,503.07036 121.47646,506.43356 C 121.01972,507.53356 120.41163,510.45856 120.12516,512.93356 C 119.83868,515.40856 119.08304,520.80856 118.44596,524.93356 C 117.75867,529.38356 117.57175,535.48356 117.9863,539.93356 C 119.63803,557.66416 119.90571,554.90906 112.98269,591.43356 C 108.79174,613.54416 108.68942,611.30526 115.54188,647.43356 C 116.58507,652.93356 117.56489,662.53286 117.71927,668.76526 C 117.99973,680.08806 117.99773,680.09896 115.19419,682.51526 C 113.63377,683.86016 111.11383,684.93356 109.51677,684.93356 C 104.6033,684.93356 103.01645,681.57806 100.58916,666.05586 C 99.389161,658.38196 97.534121,649.04986 96.466861,645.31786 C 95.399601,641.58586 93.802221,634.59186 92.917131,629.77566 C 90.970851,619.18516 89.309951,617.17996 85.961871,621.37886 C 84.696011,622.96636 83.416671,625.65316 83.118911,627.34946 C 82.821151,629.04566 82.297231,643.03356 81.954641,658.43356 C 81.085361,697.50916 80.420841,704.46726 77.255971,707.63206 C 74.287261,710.60076 68.769651,710.99556 64.977041,708.51046 C 62.115421,706.63546 61.993551,705.00226 63.553561,689.43356 C 64.352751,681.45776 64.213661,676.43236 62.866441,664.60716 C 61.470451,652.35396 61.379991,648.44906 62.345231,642.10716 C 63.723421,633.05216 63.841011,626.93356 62.636861,626.93356 C 62.162161,626.93356 61.509831,629.74606 61.187231,633.18356 C 60.864631,636.62106 60.113411,643.70856 59.517851,648.93356 C 58.922301,654.15856 58.256561,670.27636 58.038431,684.75076 C 57.714341,706.25746 57.360881,711.49686 56.104781,713.41386 C 53.256541,717.76086 44.616821,717.88346 40.754131,713.63166 C 38.973751,711.67196 38.663941,709.31846 37.897811,691.93356 C 36.821581,667.51196 36.777171,651.12406 37.766851,643.61406 C 38.277631,639.73816 38.194141,638.00456 37.516851,638.42316 C 36.957551,638.76876 36.499951,640.34846 36.499951,641.93356 C 36.499951,643.51866 36.049951,645.09366 35.499951,645.43356 C 34.882371,645.81526 34.499951,654.45466 34.499951,668.02466 C 34.499951,691.37286 33.808161,695.62786 29.650351,697.85306 C 26.009261,699.80176 21.730281,699.11116 18.265731,696.01576 L 14.999951,693.09796 L 14.383661,670.76576 C 14.044711,658.48306 14.166611,645.05856 14.654561,640.93356 C 15.142501,636.80856 16.498161,625.33356 17.667131,615.43356 C 19.930541,596.26466 21.112671,576.93356 20.021461,576.93356 C 19.337301,576.93356 9.2797514,585.56746 2.1655014,592.26206 C -4.9863286,598.99196 -13.588129,601.95666 -25.798829,601.90026 C -34.014529,601.86236 -37.500029,599.95796 -37.500029,595.50706 C -37.500029,593.44656 -36.715229,592.56686 -33.750029,591.30336 C -23.668829,587.00796 -21.500029,585.88086 -21.500029,584.93706 C -21.500029,584.37476 -16.694529,579.08576 -10.821029,573.18376 C -4.9475286,567.28176 1.8352614,559.74846 4.2519514,556.44316 C 12.012571,545.82896 12.776941,544.93356 14.076941,544.93356 C 14.779761,544.93356 16.303691,543.72726 17.463451,542.25286 C 18.623221,540.77846 21.529011,538.19096 23.920761,536.50286 C 34.738901,528.86736 50.443301,514.70696 53.100761,510.19166 C 57.705701,502.36736 59.498901,498.18756 59.518701,495.23186 C 59.535751,492.68656 60.987701,486.72376 66.531101,466.43356 C 67.582941,462.58356 69.357401,456.08456 70.474341,451.99136 C 71.591271,447.89806 73.187671,440.61526 74.021871,435.80716 C 74.856081,430.99916 77.071271,422.83136 78.944511,417.65636 C 84.385181,402.62626 87.228051,388.79566 95.023071,339.43356 C 100.40769,305.33545 103.2983,288.70645 105.97432,276.43356 C 107.29349,270.38356 109.78852,257.33356 111.51884,247.43356 C 114.47171,230.53877 120.11192,208.44075 124.6635,195.93356 C 125.76435,192.90856 128.38133,185.48356 130.47902,179.43356 C 132.57671,173.38356 135.63999,165.50856 137.2863,161.93356 C 145.88964,143.25129 149.31851,129.126 152.45799,99.433558 C 153.62105,88.433558 155.67872,70.433558 157.03058,59.433558 C 163.86739,3.8029426 164.00271,1.8747325 163.7325,-36.066438 C 163.34076,-91.073267 165.04788,-111.08381 173.11676,-146.06643 C 177.76343,-166.21208 182.72695,-181.44638 186.47348,-187.06163 C 193.63654,-197.79746 203.39644,-205.27779 217.58314,-210.90523 C 225.29324,-213.96359 228.69154,-215.69434 238.49994,-221.55827 C 241.52494,-223.36676 248.42214,-226.49126 253.82694,-228.50162 C 277.05234,-237.14042 331.91394,-263.50255 345.99994,-272.79267 C 355.65254,-279.15883 361.85024,-285.26711 364.08594,-290.6179 C 366.25514,-295.80965 368.50464,-311.80214 369.01494,-325.66105 C 369.46244,-337.81191 369.37464,-338.52292 366.63584,-344.92204 C 360.58784,-359.05328 357.29684,-370.68282 354.04954,-389.39798 C 352.38484,-398.99266 351.99464,-400.06644 350.17304,-400.06644 C 349.50824,-400.06644 347.23074,-401.24435 345.11214,-402.68401 C 339.99124,-406.16372 334.59034,-417.79239 331.10834,-432.83518 C 328.11954,-445.74753 327.90314,-450.67769 329.97624,-458.63657 C 331.53694,-464.62879 332.57434,-466.39552 336.31674,-469.435 C 338.31724,-471.0598 338.54024,-471.87967 337.95054,-475.44154 C 337.57504,-477.71023 336.87164,-480.32125 336.38754,-481.24381 C 335.90344,-482.16636 335.01824,-488.69136 334.42044,-495.74381 C 333.82264,-502.79625 332.85544,-509.5594 332.27104,-510.77301 C 331.51784,-512.33716 331.53324,-515.83085 332.32404,-522.77301 C 333.03734,-529.03531 333.08984,-532.68663 332.46974,-532.89977 C 331.22624,-533.32718 331.20574,-536.76659 332.44214,-537.53073 C 332.96044,-537.85101 333.65844,-540.24007 333.99344,-542.83975 C 334.32834,-545.43943 335.02934,-548.34783 335.55124,-549.30287 C 336.07304,-550.25791 336.49994,-552.23314 336.49994,-553.69227 C 336.49994,-555.15141 337.92674,-558.64501 339.67064,-561.45584 C 341.41444,-564.26667 344.29034,-569.1102 346.06134,-572.21924 C 349.01204,-577.39906 357.68294,-588.6167 366.41064,-598.54527 C 370.66794,-603.38833 379.18084,-609.92578 382.24994,-610.70905 C 383.48744,-611.02486 384.49994,-611.7042 384.49994,-612.21869 C 384.49994,-612.73317 385.06244,-613.04948 385.74994,-612.9216 C 386.43744,-612.79372 388.41374,-613.02406 390.14174,-613.43346 C 392.56164,-614.00677 393.17134,-614.60721 392.79494,-616.04634 C 392.38434,-617.61672 393.07704,-618.03043 397.13654,-618.63919 C 399.79314,-619.03758 403.45654,-619.986 405.27734,-620.7468 C 407.09824,-621.50759 409.03794,-621.85201 409.58774,-621.51216 C 410.13764,-621.17232 411.21664,-621.41635 411.98554,-622.05446 C 412.75444,-622.69257 415.54714,-623.28233 418.19174,-623.36504 C 420.83624,-623.44775 423.32054,-623.97604 423.71234,-624.53902 C 424.18154,-625.21323 426.10464,-624.96594 429.34654,-623.81453 C 435.13274,-621.75946 438.17494,-621.59135 438.74294,-623.29528 C 439.04734,-624.2086 439.78994,-624.10645 441.63514,-622.89742 C 443.98104,-621.36034 447.80994,-621.33763 451.49994,-622.83893 C 452.32494,-623.17458 454.34994,-623.55952 455.99994,-623.69435 C 457.64994,-623.82918 460.52634,-624.25351 462.39204,-624.63731 C 464.72174,-625.11659 465.57454,-624.99617 465.11514,-624.25282 C 464.66334,-623.52186 466.36844,-623.17969 470.36734,-623.19882 C 476.71404,-623.22918 480.55704,-621.71736 484.22244,-617.74834 C 485.44474,-616.42473 488.47824,-614.77247 490.96354,-614.07664 C 493.44874,-613.38081 496.49864,-611.80326 497.74104,-610.57096 C 498.98344,-609.33867 502.24994,-607.17858 504.99994,-605.77077 C 513.30194,-601.5207 520.97514,-593.3805 535.82784,-573.06644 C 537.63744,-570.59144 539.69394,-566.99144 540.39784,-565.06644 C 541.10164,-563.14144 542.33544,-560.33326 543.13964,-558.82604 C 545.14774,-555.06219 546.72994,-546.20691 547.20604,-536.06644 C 547.68504,-525.86532 547.71574,-527.17432 546.56064,-508.56644 C 545.38544,-489.63586 543.99474,-479.22809 541.82384,-473.11572 L 540.11704,-468.31017 L 542.78244,-465.14253 C 545.65264,-461.73153 549.49994,-450.71162 549.49994,-445.90157 C 549.49994,-440.81057 544.62354,-420.93495 541.24004,-412.23546 C 539.20684,-407.00752 536.72734,-402.63099 534.58324,-400.48546 C 531.15684,-397.05663 530.52254,-396.8017 525.03834,-396.64893 L 522.07674,-396.56644 L 519.22894,-382.56644 C 515.03804,-361.96343 514.79184,-360.84152 513.74364,-357.56644 C 512.79894,-354.61441 512.90694,-341.0701 513.99724,-325.7829 C 514.83454,-314.04283 518.06404,-299.486 520.90794,-294.63323 C 524.47884,-288.54003 532.80984,-281.28556 542.06074,-276.2138 C 580.80044,-254.975 617.53994,-236.92654 639.99994,-228.10062 C 657.82604,-221.09565 660.92624,-219.54072 673.49994,-211.29805 C 687.96474,-201.81569 699.34604,-192.40631 703.97014,-186.10711 C 712.80774,-174.06787 719.23854,-152.83076 724.57364,-118.06643 C 726.63814,-104.61405 726.81644,-99.66496 727.04114,-49.566438 C 727.27284,2.0979125 728.24954,25.168268 731.43334,54.180488 C 737.10584,105.87224 740.15284,127.49102 743.66064,140.93356 C 746.12884,150.39208 746.55714,151.55803 753.58034,167.93356 C 759.77194,182.37002 772.09364,218.93523 775.48404,232.93356 C 776.61624,237.60856 778.90404,250.65856 780.56784,261.93356 C 782.23174,273.20856 785.35464,293.23356 787.50764,306.43356 C 791.43194,330.49231 794.59404,351.47966 796.54774,366.43356 C 798.58374,382.01696 800.69164,394.29076 802.62434,401.81466 C 804.84824,410.47266 814.97594,442.46826 820.22964,457.43356 C 822.16044,462.93356 825.21844,472.60856 827.02524,478.93356 C 832.89824,499.49276 835.18174,504.52016 841.91944,511.72406 C 845.26374,515.29986 854.68314,524.06716 862.85154,531.20696 C 872.00954,539.21176 878.71844,545.91596 880.35154,548.69466 C 883.52534,554.09496 890.12304,562.56146 896.56994,569.50696 C 899.15994,572.29726 902.23154,576.44726 903.39564,578.72916 C 906.46204,584.73986 910.72494,589.21966 916.99234,593.01816 C 921.86334,595.97036 922.49994,596.73356 922.49994,599.62176 C 922.49994,604.59116 919.14484,606.33946 910.88094,605.67606 C 900.71724,604.86026 892.04874,600.05736 880.74994,588.98186 L 871.49994,579.91456 L 871.49994,586.05876 C 871.49994,592.53016 871.92604,595.59716 876.06704,618.93356 C 880.27804,642.66456 880.45894,644.58166 880.47984,665.71566 C 880.50314,689.16556 879.84904,692.05406 873.95894,694.51516 C 870.65744,695.89456 870.02934,695.86996 866.67294,694.22916 C 861.75654,691.82566 860.87334,688.74576 859.52294,669.29416 C 857.84884,645.18246 857.20804,640.95226 853.88284,632.06446 C 852.57224,628.56156 851.49994,624.17406 851.49994,622.31446 C 851.49994,620.45496 851.04994,618.93356 850.49994,618.93356 C 849.01184,618.93356 849.28934,625.33216 851.07674,632.22986 C 853.07864,639.95536 853.40474,659.28916 851.74994,672.14416 C 851.06244,677.48496 850.49994,687.65676 850.49994,694.74816 C 850.49994,706.95886 850.37334,707.77816 848.10854,710.22186 C 844.98254,713.59496 839.08954,714.74516 835.59844,712.66366 C 830.78934,709.79616 830.50504,708.10826 830.84384,684.43356 C 831.15174,662.92676 830.67614,652.60986 828.54094,634.47676 C 826.80514,619.73446 825.35734,621.54546 826.11924,637.50616 C 826.56624,646.87086 826.41814,652.67556 825.67324,654.98116 C 823.97714,660.23086 822.53304,674.87416 822.18804,690.32126 C 821.89074,703.63826 821.77824,704.28986 819.45064,706.17456 C 816.22924,708.78316 808.85554,707.97586 806.16364,704.71986 C 804.42524,702.61716 804.35764,700.23636 804.89544,660.04676 C 805.44784,618.76936 805.24664,614.93356 802.52854,614.93356 C 802.12904,614.93356 801.72944,618.82406 801.64074,623.57906 C 801.55194,628.33406 800.74084,634.97156 799.83834,638.32906 C 798.93584,641.68656 798.10934,646.68356 798.00174,649.43356 C 797.67384,657.81076 796.35874,670.22526 795.38974,674.09046 C 793.84084,680.26916 786.26694,681.18096 782.16204,675.68276 C 779.43234,672.02666 778.86534,660.21356 780.63804,643.93356 C 782.38204,627.91696 782.38544,607.98116 780.64534,601.18586 C 779.90624,598.29956 779.00874,596.11906 778.65074,596.34006 C 778.29284,596.56116 777.90514,594.53636 777.78924,591.84046 C 777.67334,589.14456 777.12004,585.23636 776.55974,583.15546 C 773.05214,570.12936 771.57064,555.74456 771.78314,536.77836 C 771.98904,518.41126 771.88624,517.22076 769.74994,513.22336 C 768.51244,510.90776 767.49994,508.33496 767.49994,507.50596 C 767.49994,506.03826 760.41764,489.17176 745.15954,454.30226 C 741.03654,444.88006 735.19704,430.70506 732.18284,422.80226 C 729.16864,414.89946 721.66654,396.50856 715.51164,381.93356 C 701.54074,348.85006 698.90164,342.00969 686.96074,307.93356 C 677.37904,280.5901 674.56394,273.35906 668.66304,260.93356 C 665.21664,253.67665 655.53064,227.15461 653.50694,219.43356 C 652.70324,216.36716 652.11334,207.27925 651.98154,195.93356 C 651.78914,179.36576 651.48984,176.44135 649.11554,167.93356 C 643.55034,147.99106 637.36144,121.89627 634.53864,106.47184 C 632.10904,93.195528 628.49994,65.603618 628.49994,60.304748 C 628.49994,59.550588 628.10354,58.933558 627.61914,58.933558 C 627.13464,58.933558 625.98244,63.996058 625.05874,70.183558 C 624.13504,76.371058 621.87604,89.533558 620.03884,99.433558 C 610.52274,150.71066 609.67674,179.3521 616.65644,213.93356 C 625.91734,259.81716 627.31024,270.54056 628.54104,305.43356 C 629.06484,320.28356 629.93414,334.23356 630.47284,336.43356 C 631.01154,338.63356 631.46294,342.33023 631.47614,344.64838 C 631.49344,347.72004 632.00524,349.13359 633.36284,349.86016 C 634.38734,350.40849 635.70744,352.11182 636.29634,353.64534 C 637.42394,356.58146 640.46544,371.32906 640.99624,376.43356 C 641.16774,378.08356 641.98224,381.57106 642.80614,384.18356 C 643.63014,386.79606 644.06814,388.93356 643.77964,388.93356 C 643.49114,388.93356 643.74834,389.52796 644.35134,390.25446 C 644.95424,390.98096 645.41834,392.89346 645.38274,394.50446 C 645.34704,396.11546 645.84424,399.68356 646.48764,402.43356 C 651.14454,422.33846 652.52854,429.94736 653.49064,440.93356 C 654.74214,455.22416 656.11164,466.72316 658.01644,478.93356 C 658.74584,483.60856 660.12374,494.61816 661.07864,503.39946 C 662.60304,517.41696 662.66784,521.56606 661.60964,537.39946 C 659.84074,563.86656 654.82854,616.55276 651.95034,638.93356 C 650.57114,649.65856 648.56994,671.03356 647.50334,686.43356 C 645.22924,719.26546 637.23884,796.27486 634.99374,806.99786 C 634.13744,811.08746 632.59774,817.13356 631.57234,820.43356 C 625.85104,838.84436 623.44044,876.03396 625.41444,915.43353 C 626.52964,937.69033 627.43114,942.76153 634.83614,968.43353 C 639.36454,984.13283 646.03494,1017.9176 647.96574,1034.9336 C 650.66064,1058.6842 649.90324,1097.8022 645.99074,1136.9336 C 644.47424,1152.101 642.83224,1183.2096 641.97914,1212.9336 C 641.70284,1222.5586 641.02234,1236.7336 640.46684,1244.4336 C 637.06814,1291.5444 636.63814,1312.2396 638.92374,1318.7175 C 639.70674,1320.9369 640.12084,1322.9794 639.84384,1323.2564 C 639.56674,1323.5334 640.11234,1324.9386 641.05614,1326.379 C 644.60424,1331.7941 646.55844,1341.9212 647.14514,1357.9336 L 647.71294,1373.4336 L 652.32144,1379.4336 C 657.15984,1385.7331 665.48194,1401.2635 669.46884,1411.4336 C 670.76244,1414.7336 672.42374,1418.144 673.16044,1419.0123 C 673.89714,1419.8806 674.49994,1421.0088 674.49994,1421.5194 C 674.49994,1422.03 676.56124,1424.9196 679.08054,1427.9407 C 685.32524,1435.4292 697.31944,1453.2713 699.64884,1458.5372 C 700.69674,1460.9063 702.60364,1464.1021 703.88634,1465.6391 C 709.99444,1472.958 712.48334,1481.7563 712.45604,1495.9336 C 712.43794,1505.3194 712.14734,1507.0172 709.71784,1511.9336 C 708.16084,1515.0845 705.93214,1517.9509 704.49994,1518.6448 C 701.76294,1519.9709 700.80144,1522.8289 700.61824,1530.1836 C 700.47374,1535.9856 697.68314,1539.4474 693.91334,1538.5012 C 691.64264,1537.9313 691.49994,1538.1495 691.49994,1542.192 C 691.49994,1548.2499 689.35384,1550.9336 684.50964,1550.9336 C 681.03584,1550.9336 680.59994,1551.2161 680.31634,1553.6513 C 679.57694,1560.0021 666.03364,1563.6625 660.94894,1558.8857 L 658.76914,1556.8378 L 658.18194,1559.7735 C 657.02674,1565.5496 641.98644,1569.759 634.49994,1566.4014 z "
       id="path2180" />
  </g>
</svg>
