<?xml version="1.0" standalone="no"?>
<!DOCTYPE svg PUBLIC "-//W3C//DTD SVG 20010904//EN"
 "http://www.w3.org/TR/2001/REC-SVG-20010904/DTD/svg10.dtd">
<svg version="1.0" xmlns="http://www.w3.org/2000/svg"
 width="700.000000pt" height="700.000000pt" viewBox="0 0 700.000000 700.000000"
 preserveAspectRatio="xMidYMid meet">
<metadata>
Created by potrace 1.11, written by Peter Selinger 2001-2013
</metadata>
<g transform="translate(0.000000,700.000000) scale(0.100000,-0.100000)"
fill="#000000" stroke="none">
<path d="M3799 6135 c-75 -105 -161 -112 -235 -20 l-29 35 -40 -21 c-22 -11
-50 -27 -62 -35 l-22 -14 20 -47 c50 -117 110 -165 208 -165 36 0 75 7 103 19
46 21 168 127 168 147 -1 6 -18 42 -39 79 l-39 69 -33 -47z"/>
<path d="M3525 5738 c4 -29 9 -60 11 -68 1 -8 3 -20 3 -27 1 -19 95 -42 153
-38 95 6 105 12 126 68 11 29 23 67 27 85 l7 32 -167 0 -167 0 7 -52z"/>
<path d="M1130 5669 c-147 -17 -174 -22 -286 -55 -368 -108 -642 -378 -767
-754 -51 -152 -70 -281 -73 -472 -1 -98 2 -197 6 -220 5 -24 14 -72 21 -108
40 -214 153 -426 310 -582 216 -215 448 -316 884 -384 97 -16 133 -21 146 -23
3 -1 5 -142 5 -313 -2 -260 -5 -325 -19 -383 -29 -115 -79 -207 -160 -290
l-72 -75 444 0 444 0 -48 48 c-60 59 -85 92 -121 162 -64 121 -82 216 -78 416
4 226 4 399 0 421 -3 12 1 23 7 26 7 2 60 5 119 5 212 2 307 -53 413 -237 46
-79 79 -125 270 -376 121 -157 131 -170 220 -260 158 -161 303 -226 502 -229
85 -1 116 -5 127 -16 11 -12 16 -62 20 -215 3 -110 8 -218 11 -240 6 -48 15
-117 21 -165 18 -126 75 -303 135 -416 66 -127 56 -125 112 -27 48 84 73 142
81 189 3 13 12 59 20 101 61 297 73 383 83 578 8 156 9 2453 1 2499 -3 22 -12
32 -31 37 -26 7 -29 3 -73 -84 -25 -50 -49 -110 -54 -132 -11 -52 -28 -1255
-34 -2460 l-1 -310 -30 0 c-25 0 -30 4 -32 25 -4 54 -13 748 -28 2150 -3 283
-8 527 -10 543 -3 15 -7 41 -10 58 -11 64 -71 159 -130 203 l-33 26 -1 -1033
c0 -567 0 -1057 -1 -1088 0 -51 -3 -57 -27 -68 -14 -7 -29 -8 -32 -4 -3 5 -29
25 -57 46 -47 36 -263 250 -309 307 -11 14 -44 54 -73 90 -76 92 -68 83 -187
241 -60 79 -147 191 -193 249 -47 58 -89 110 -94 117 -6 8 -1 21 16 40 34 38
61 69 110 126 22 27 54 63 70 80 111 124 197 293 221 437 7 38 8 187 2 210 -2
8 -7 33 -12 55 -16 82 -90 219 -151 280 -118 118 -256 174 -469 192 -125 11
-1065 8 -1065 -3 0 -2 30 -54 67 -116 79 -134 101 -199 110 -327 7 -105 6
-882 -2 -889 -2 -2 -54 8 -116 23 -237 59 -439 193 -582 387 -166 225 -242
480 -241 808 1 99 7 174 19 230 3 14 8 39 11 55 32 183 120 362 244 499 83 91
263 192 377 212 13 2 35 7 51 10 15 3 72 7 127 9 91 3 126 0 250 -19 284 -44
447 -139 529 -310 35 -72 66 -196 61 -241 -9 -89 65 48 102 186 16 59 12 198
-7 249 -55 149 -157 249 -300 291 -33 10 -130 14 -375 14 -181 0 -355 -3 -385
-6z m877 -1273 c104 -12 229 -73 306 -151 173 -173 215 -435 116 -727 -43
-128 -112 -208 -215 -248 -52 -21 -77 -23 -214 -24 -197 -1 -228 10 -247 87
-10 40 -11 941 -1 983 7 29 18 46 40 59 28 16 127 35 153 29 6 -2 33 -5 62 -8z"/>
<path d="M3708 5545 c-2 -1 -32 -5 -67 -8 -83 -7 -113 -33 -113 -100 0 -25 3
-50 5 -54 6 -10 274 -10 283 0 17 17 12 96 -6 120 -16 20 -92 51 -102 42z"/>
<path d="M3594 5293 c-48 -9 -80 -72 -68 -132 l6 -27 138 0 139 -1 9 26 c18
56 2 104 -42 125 -32 15 -128 20 -182 9z"/>
<path d="M3524 4938 l1 -93 148 -2 c131 -1 147 0 148 15 4 48 4 149 1 160 -3
9 -42 12 -151 12 l-147 0 0 -92z"/>
<path d="M3549 4706 c-2 -2 -40 -7 -84 -11 -44 -4 -93 -8 -110 -10 -16 -2 -61
-6 -100 -10 -38 -4 -81 -9 -95 -10 -14 -2 -56 -6 -95 -10 -38 -4 -72 -8 -75
-10 -3 -2 -39 -6 -80 -10 -41 -4 -78 -12 -82 -18 -17 -28 67 -129 135 -161 64
-31 108 -38 217 -36 47 1 110 2 140 3 164 2 267 -46 328 -153 l28 -48 46 57
c53 66 133 124 198 141 46 13 155 16 200 7 84 -17 133 -33 195 -63 152 -74
250 -208 289 -394 18 -87 18 -255 -1 -327 -50 -193 -193 -338 -415 -420 -43
-15 -78 -31 -78 -35 0 -12 32 -38 40 -33 8 5 244 56 485 105 50 11 93 16 97
12 3 -4 9 -32 13 -62 3 -30 8 -66 10 -80 2 -14 7 -45 11 -70 3 -25 7 -49 8
-55 14 -64 21 -92 43 -164 90 -303 287 -543 558 -679 111 -55 278 -108 405
-128 19 -3 46 -7 60 -10 97 -17 223 -19 870 -13 l285 2 -40 41 c-84 85 -134
173 -161 275 -13 54 -16 132 -18 465 -2 431 -4 444 -56 491 -21 19 -37 20
-283 20 l-262 0 -3 -27 c-3 -24 0 -27 25 -24 80 7 173 -46 204 -119 21 -48 22
-63 22 -436 0 -417 -1 -431 -52 -477 -38 -33 -92 -45 -215 -47 -321 -5 -563
109 -741 350 -89 122 -167 271 -215 415 -36 105 -34 101 -57 220 -22 120 -22
444 1 511 3 8 7 30 10 49 15 101 89 319 135 400 78 137 207 247 345 296 200
72 474 56 688 -38 138 -61 200 -115 304 -270 37 -54 69 -98 73 -98 4 0 15 24
25 53 11 28 61 170 112 314 52 144 94 263 94 266 0 7 -1122 0 -1160 -7 -314
-59 -466 -134 -661 -323 -53 -51 -100 -93 -106 -93 -6 0 -34 26 -63 58 -135
146 -208 214 -255 237 -90 44 -571 157 -765 180 -65 7 -366 16 -371 11z"/>
</g>
</svg>
