<svg version="1.0" xmlns="http://www.w3.org/2000/svg" viewBox="0 0 700 700"><path d="M366.5 141.6c-2.9 3.3-5 4.6-7.6 5-3.1.5-4 .1-7.8-3.4l-4.3-4-4.4 2.6c-2.4 1.5-4.4 3.1-4.4 3.7 0 .5 1.3 3.2 2.8 6 3.6 6.5 8.1 9.5 14.4 9.5 6.4 0 10.2-1.7 16.5-7.4l5.3-4.7-3-6c-1.7-3.2-3.1-5.9-3.3-5.9-.1.1-2 2.1-4.2 4.6zM346.5 171.5c.4 2.2.7 4.8.9 5.9.1 1 1 2.2 1.9 2.7 2.4 1.4 11.8 2.1 15.1 1.1 3.1-.9 5.9-5.2 6.9-10.8l.6-3.1-13 .1h-13l.6 4.1zM165.7 176.6c-.1.1-3.9.4-8.5.7-16.4 1.2-35.2 8.1-48.2 17.7-16.2 12-27.4 28.6-33.4 49.3-3.4 11.7-3.7 14.3-4.1 32.7-.3 13.2 0 18.1 1.5 24.5 4.8 21.2 12.7 35.4 27.5 49.3 16.8 15.8 36.1 23.3 73.3 28.6 1.9.2 3.6.7 3.9 1 .6.6.8 33.8.3 44.6-.6 12.5-4.8 22.4-13.6 31.9l-5.6 6.1h69.6l-5.1-5.3c-2.9-2.8-6.6-8-8.2-11.4-5.4-10.8-6-14.8-6.1-42.3l-.1-25.1 10.3.2c11.5.2 18.3 2.1 23.1 6.7 1.6 1.5 6.4 7.9 10.6 14.2 12 18 29.6 40.4 38.2 48.4 9.1 8.6 14.8 12 24.2 14.6 8 2.2 6.3 2 14.5 2 3.7 0 7.3.4 7.9.8 1.6 1 2.1 5 2.7 21.2.8 20.6 2.6 33.1 6.8 45.5 2.9 9 9.8 22.7 11.1 22.2 1.5-.5 9.5-16.3 10.1-20.2.3-1.7 1-5.3 1.6-8 .6-2.8 1.5-7.7 2.1-10.9.5-3.3 1.2-6.2 1.4-6.5.2-.4.6-3.8 1-7.6.4-3.9 1-7.9 1.3-9 1.1-4 1.3-205.5.2-207.5-2.3-4.4-5.7-1-10 9.9-1.7 4.4-2.2 8.2-2.5 19.5-.4 16.3-1.6 106.4-2 162.6-.2 21.2-.4 38.8-.4 39.2-.2 1.1-4.1.5-4.2-.7-.4-4.1-.8-20.9-1.3-67-1.2-101.6-1.7-137-2.1-143.2-.3-3.5-1.4-8.3-2.7-10.9-2-4.4-9.4-13.1-10.3-12.2-.3.2-.5 38.2-.5 84.3-.1 58.6-.4 84.3-1.2 85.2-2.5 3.1-4.5 1.7-21.8-15.7-6.3-6.3-15-16-19.2-21.5-4.3-5.5-13.6-17.5-20.8-26.8-7.1-9.2-13-17.2-13-17.7 0-.6 3.5-5 7.8-9.8 14.1-15.8 18.8-23.2 22.8-35.5 3.3-10.3 3-24.5-.8-33.6-7.6-18.3-18.6-26.4-41.8-30.7-3.8-.7-77.4-1.2-84-.6l-4 .4 2.9 5.2c11.3 20.1 10.8 17.7 11 62.1l.1 36.7-4.5-.6c-19.7-3-40.6-16.6-52.6-34.3-11-16.4-16-33.8-16.4-57.1-.4-23.5 4.2-40.5 15.3-56.9 5.1-7.4 10.6-12.5 19-17.4 9.8-5.8 17.5-7.8 30.3-8 22.6-.4 43.6 5.8 53.8 15.9 6 5.9 10.1 14.9 11.5 25.1.3 2.4.8 4.6 1 4.9.7.6 4.1-6.5 6.1-12.7 1.7-5.1 2.2-15.6 1.1-21-1.8-8.3-9.7-17.9-18.3-22.1l-6.7-3.3-25.8-.2c-14.2-.1-25.9 0-26.1.1zm67.7 101.1c15 4.4 25.8 15.8 29.9 31.5 4 15.4-1.2 39.8-10.5 49.5-5.6 5.8-11.6 7.6-25.9 7.5-13.2 0-16-.7-18.1-4.5-1.4-2.6-2-74.2-.7-79.2.9-2.9 2.5-4.4 6.4-5.7 3.3-1.1 13.6-.6 18.9.9zM355.5 187.2c-2.7.5-5.8 1.6-6.7 2.5-2.1 1.9-2.5 8.8-.5 9.6.6.2 5.3.4 10.2.4 10.8 0 11.5-.2 11.5-3.6 0-6-1.3-7.5-8-9.3-.8-.3-3.7 0-6.5.4zM349 208c-1.9 1.9-2.2 2.9-2.2 6.5 0 4.1 0 4.1 11.1 4.3 10.5.2 10.9.1 11.5-2 1-4.1.6-5.8-1.9-8.3-2.1-2.2-3.3-2.5-9.5-2.5-5.7 0-7.4.4-9 2zM350 226.8l-3.6.3v6.9c.1 4 .5 7 1.1 7.1 4.4.5 19.3.4 20.6 0 1.3-.5 1.6-1.9 1.5-7.1l-.1-6.5-8-.5c-4.4-.3-9.6-.4-11.5-.2z"/><path d="M345.9 252.4c-.2.2-4.4.7-9.2 1.1-4.9.3-9.8.8-11 1-1.2.2-4.9.7-8.2 1-12.7 1.3-14.1 1.5-18 2-8.9 1.3-9.4 2.4-3.7 8.7 6.2 6.9 10 8 28.7 8.3 13.9.2 16.8.6 20.6 2.3 5.4 2.5 7.9 4.7 10.4 8.9 1.1 1.8 2.3 3.3 2.7 3.3.4 0 2.8-2.2 5.4-5 9.1-9.8 20.8-12.6 35.4-8.4 16 4.4 25.4 13.7 31 30.4 1.7 5 2.2 21.5.9 28-3 14.9-13.9 26.4-32.2 34-6.4 2.7-8 6.2-2.2 5 27.3-5.8 34.8-7.3 41.6-8.5 3-.5 3.2 0 4.4 9 5.6 43.7 25.8 70.8 62 82.9 17.7 5.9 22.1 6.4 69.3 6.5 23.7.1 43.2-.1 43.2-.4 0-.4-1.5-2.2-3.4-4.2-4.9-5.2-9.3-13-10.9-19.3-1-3.7-1.5-12.1-1.6-26-.4-36.5-.7-43.4-2.5-46.7-.9-1.8-2.5-3.4-3.6-3.8-1.1-.3-10.6-.7-21.1-.7-14.9-.1-19.3.2-19.9 1.3-1.3 2-.5 2.6 4.5 3.1 2.8.4 5.9 1.6 8.1 3.3 6.4 4.9 6.6 6 6.2 41.6l-.3 31.9-2.5 2.5c-1.4 1.4-4.1 3-6 3.5-3.3.9-25.6.8-29.5-.3-1.1-.3-4-1-6.5-1.7-24.7-6.6-46.1-34.3-53.9-69.6-2.6-11.5-2.6-36.7-.1-48.4 2.3-10.7 7.3-25 11.1-31.6 7.2-12.7 21.8-22.8 35.9-25 9.5-1.5 26.5-.7 32.3 1.5 1.5.6 2.7.9 2.7.6 0-.9 14.3 5.6 18.2 8.3 5.4 3.8 9.2 7.9 15.2 16.4 4.9 7.1 6 7.9 6.9 5 .3-.9 3.1-8.9 6.2-17.7 3.1-8.8 6.7-19.1 8.1-22.8l2.3-6.9-46.2.4c-44.2.4-46.6.5-55.2 2.7-16.6 4.2-27.5 10.4-42 23.8-3.7 3.5-7 6.3-7.4 6.3-.4 0-5.2-4.7-10.8-10.4-5.9-6-11.9-11.2-14.5-12.4-3.6-1.7-18.5-6.1-26.3-7.8-1.9-.4-3.2-.7-8.7-1.9-1.3-.3-3.6-.8-5.2-1.1-1.6-.2-3.2-.6-3.5-.8-.3-.2-3.1-.7-6.1-1.1-3-.4-5.8-.9-6.2-1.1-.9-.6-34.3-1.5-34.9-1z"/></svg>
