<svg xmlns="http://www.w3.org/2000/svg" viewBox="0 0 46 36"><path d="M38.979 3.456a.118.118 0 0 0-.06-.055A37.895 37.895 0 0 0 29.57.502a.142.142 0 0 0-.15.071 26.37 26.37 0 0 0-1.165 2.391 34.987 34.987 0 0 0-10.502 0A24.194 24.194 0 0 0 16.57.574a.148.148 0 0 0-.15-.072 37.788 37.788 0 0 0-9.35 2.9.134.134 0 0 0-.062.052C1.052 12.348-.58 21.023.22 29.59a.157.157 0 0 0 .06.108 38.099 38.099 0 0 0 11.47 5.796.149.149 0 0 0 .162-.053 27.206 27.206 0 0 0 2.346-3.816.144.144 0 0 0 .006-.119.144.144 0 0 0-.085-.083 25.086 25.086 0 0 1-3.584-1.707.148.148 0 0 1-.059-.189.147.147 0 0 1 .045-.056c.24-.18.482-.368.711-.557a.142.142 0 0 1 .149-.02c7.518 3.43 15.657 3.43 23.086 0a.142.142 0 0 1 .15.018c.23.19.471.379.714.56a.146.146 0 0 1 .038.193.148.148 0 0 1-.051.05 23.553 23.553 0 0 1-3.585 1.706.145.145 0 0 0-.094.145c0 .02.006.04.016.059a30.561 30.561 0 0 0 2.344 3.814.146.146 0 0 0 .162.054 37.972 37.972 0 0 0 11.489-5.795.148.148 0 0 0 .06-.106c.958-9.905-1.604-18.509-6.792-26.136ZM15.382 24.373c-2.263 0-4.128-2.077-4.128-4.628 0-2.55 1.829-4.628 4.128-4.628 2.318 0 4.165 2.095 4.129 4.628 0 2.551-1.83 4.628-4.129 4.628Zm15.264 0c-2.263 0-4.128-2.077-4.128-4.628 0-2.55 1.829-4.628 4.128-4.628 2.318 0 4.165 2.095 4.129 4.628 0 2.551-1.811 4.628-4.129 4.628Z"/></svg>
