<svg xmlns="http://www.w3.org/2000/svg" viewBox="0 0 32 32"><path d="M26.11 8.63A6 6 0 0 0 21 7.35l-3.43.77-.65.11a5.08 5.08 0 0 1 .82-3.35A2.76 2.76 0 0 1 20 4a1 1 0 0 0 0-2 4.7 4.7 0 0 0-3.78 1.58 6.91 6.91 0 0 0-1.29 4.62l-.51-.08L11 7.35a6 6 0 0 0-5.1 1.28C3.49 10.55 2 14.16 2 18.06c0 4.29 1.72 8.07 4.48 9.85a5.94 5.94 0 0 0 3.25 1 5.93 5.93 0 0 0 2.41-.53 9.29 9.29 0 0 1 7.72 0 5.77 5.77 0 0 0 5.66-.48c2.76-1.77 4.48-5.55 4.48-9.84 0-3.9-1.49-7.51-3.89-9.43Zm-1.68 17.61a3.8 3.8 0 0 1-3.75.32 11.32 11.32 0 0 0-9.36 0 3.8 3.8 0 0 1-3.75-.32C5.4 24.83 4 21.62 4 18.06c0-3.31 1.2-6.32 3.14-7.87a4.18 4.18 0 0 1 2.6-1 3.3 3.3 0 0 1 .81.09l3.43.77a9.18 9.18 0 0 0 4 0l3.43-.77a4 4 0 0 1 3.41.89C26.8 11.74 28 14.75 28 18.06c0 3.56-1.4 6.77-3.57 8.18ZM12 17h-2a1 1 0 0 1-.89-1.45l1-2a1 1 0 0 1 1.78 0l1 2A1 1 0 0 1 12 17Zm10.89-1.45A1 1 0 0 1 22 17h-2a1 1 0 0 1-.89-1.45l1-2a1 1 0 0 1 1.78 0ZM18.5 19h-5a2.5 2.5 0 0 0 0 5h5a2.5 2.5 0 0 0 0-5Zm0 3h-5a.5.5 0 0 1 0-1h5a.5.5 0 0 1 0 1Z"/></svg>
