<svg xmlns="http://www.w3.org/2000/svg" viewBox="0 0 40 40"><path d="M40 20c0 10.703-8.968 19.375-20.032 19.375-9.178 0-16.903-5.96-19.274-14.094l7.677 3.07c.516 2.508 2.814 4.407 5.556 4.407 3.162 0 5.799-2.531 5.662-5.742l6.814-4.703c4.202.101 7.726-3.196 7.726-7.305 0-4.031-3.387-7.305-7.556-7.305-4.17 0-7.557 3.281-7.557 7.305v.094l-4.774 6.695a5.781 5.781 0 0 0-3.508.945L0 18.445C.823 8.47 9.444.625 19.968.625 31.032.625 40 9.297 40 20ZM12.556 30.023l-2.46-.984a4.203 4.203 0 0 0 2.194 2.016c2.17.875 4.662-.125 5.565-2.22a3.957 3.957 0 0 0 .008-3.148 4.175 4.175 0 0 0-2.298-2.234 4.35 4.35 0 0 0-3.138-.047l2.54 1.016c1.597.64 2.356 2.414 1.686 3.96-.67 1.555-2.5 2.282-4.096 1.641Zm14.017-10.148c-2.775 0-5.033-2.188-5.033-4.867 0-2.68 2.258-4.867 5.033-4.867 2.774 0 5.032 2.187 5.032 4.867s-2.25 4.867-5.032 4.867Zm.008-1.219c2.088 0 3.782-1.64 3.782-3.656 0-2.023-1.694-3.656-3.782-3.656-2.09 0-3.783 1.64-3.783 3.656.009 2.016 1.702 3.656 3.783 3.656Z"/></svg>
