<svg fill="none" xmlns="http://www.w3.org/2000/svg" viewBox="0 0 18 18"><path d="M1 3h16v12H1V3Z" fill="#012169"/><path d="m2.875 3 6.1 4.525L15.05 3H17v1.55l-6 4.475 6 4.45V15h-2l-6-4.475L3.025 15H1v-1.5l5.975-4.45L1 4.6V3h1.875Z" fill="#fff"/><path d="M11.6 10.025 17 14v1l-6.775-4.975H11.6Zm-4.6.5.15.875-4.8 3.6H1l6-4.475ZM17 3v.075l-6.225 4.7.05-1.1L15.75 3H17ZM1 3l5.975 4.4h-1.5L1 4.05V3Z" fill="#C8102E"/><path d="M7.025 3v12h4V3h-4ZM1 7v4h16V7H1Z" fill="#fff"/><path d="M1 7.825v2.4h16v-2.4H1ZM7.825 3v12h2.4V3h-2.4Z" fill="#C8102E"/></svg>
